<svg width="6466" height="1796" viewBox="0 0 6466 1796" fill="none" xmlns="http://www.w3.org/2000/svg">
<mask id="mask0_22_8" style="mask-type:luminance" maskUnits="userSpaceOnUse" x="0" y="100" width="6466" height="196">
<path d="M6466 100H0V296H6466V100Z" fill="white"/>
</mask>
<g mask="url(#mask0_22_8)">
<path d="M196 1656V116H512V1003H540L880 579H1253L811 1095L1276 1656H903L537 1196H512V1656H196Z" fill="#F0B9A6" stroke="#F0B9A6" stroke-width="90" stroke-miterlimit="10"/>
<path d="M2780 1672C2647.33 1672 2548.67 1635.17 2484 1561.5C2419.33 1487.83 2387 1393.33 2387 1278V842H2207V580H2387V270H2703V580H2952V842H2703V1270C2703 1316 2714.17 1349.17 2736.5 1369.5C2758.83 1389.83 2786.33 1400 2819 1400C2834.33 1400 2849.33 1398 2864 1394C2878.67 1390 2891.67 1385 2903 1379L3005 1628C2975 1642.67 2940.17 1653.67 2900.5 1661C2860.83 1668.33 2820.67 1672 2780 1672Z" fill="#F0B9A6" stroke="#F0B9A6" stroke-width="90" stroke-miterlimit="10"/>
<path d="M5228 1656V116H5544V1003H5572L5912 579H6285L5843 1095L6308 1656H5935L5569 1196H5544V1656H5228Z" fill="#F0B9A6" stroke="#F0B9A6" stroke-width="90" stroke-miterlimit="10"/>
<path d="M180 1640V100H496V987H524L864 563H1237L795 1079L1260 1640H887L521 1180H496V1640H180Z" fill="#4E1E0B" stroke="#4E1E0B" stroke-width="120" stroke-miterlimit="10"/>
<path d="M2764 1656C2631.33 1656 2532.67 1619.17 2468 1545.5C2403.33 1471.83 2371 1377.33 2371 1262V826H2191V564H2371V254H2687V564H2936V826H2687V1254C2687 1300 2698.17 1333.17 2720.5 1353.5C2742.83 1373.83 2770.33 1384 2803 1384C2818.33 1384 2833.33 1382 2848 1378C2862.67 1374 2875.67 1369 2887 1363L2989 1612C2959 1626.67 2924.17 1637.67 2884.5 1645C2844.83 1652.33 2804.67 1656 2764 1656Z" fill="#4E1E0B" stroke="#4E1E0B" stroke-width="120" stroke-miterlimit="10"/>
<path d="M5212 1640V100H5528V987H5556L5896 563H6269L5827 1079L6292 1640H5919L5553 1180H5528V1640H5212Z" fill="#4E1E0B" stroke="#4E1E0B" stroke-width="120" stroke-miterlimit="10"/>
<path d="M180 1640V100H496V987H524L864 563H1237L795 1079L1260 1640H887L521 1180H496V1640H180Z" fill="#FBE7DD" stroke="#FBE7DD" stroke-width="90" stroke-miterlimit="10"/>
<path d="M2764 1656C2631.33 1656 2532.67 1619.17 2468 1545.5C2403.33 1471.83 2371 1377.33 2371 1262V826H2191V564H2371V254H2687V564H2936V826H2687V1254C2687 1300 2698.17 1333.17 2720.5 1353.5C2742.83 1373.83 2770.33 1384 2803 1384C2818.33 1384 2833.33 1382 2848 1378C2862.67 1374 2875.67 1369 2887 1363L2989 1612C2959 1626.67 2924.17 1637.67 2884.5 1645C2844.83 1652.33 2804.67 1656 2764 1656Z" fill="#FBE7DD" stroke="#FBE7DD" stroke-width="90" stroke-miterlimit="10"/>
<path d="M5212 1640V100H5528V987H5556L5896 563H6269L5827 1079L6292 1640H5919L5553 1180H5528V1640H5212Z" fill="#FBE7DD" stroke="#FBE7DD" stroke-width="90" stroke-miterlimit="10"/>
</g>
<mask id="mask1_22_8" style="mask-type:luminance" maskUnits="userSpaceOnUse" x="0" y="326" width="6466" height="197">
<path d="M6466 326.7H0V522.7H6466V326.7Z" fill="white"/>
</mask>
<g mask="url(#mask1_22_8)">
<path d="M204 1664V124H520V1011H548L888 587H1261L819 1103L1284 1664H911L545 1204H520V1664H204Z" fill="#E28F74" stroke="#E28F74" stroke-width="90" stroke-miterlimit="10"/>
<path d="M2788 1680C2655.33 1680 2556.67 1643.17 2492 1569.5C2427.33 1495.83 2395 1401.33 2395 1286V850H2215V588H2395V278H2711V588H2960V850H2711V1278C2711 1324 2722.17 1357.17 2744.5 1377.5C2766.83 1397.83 2794.33 1408 2827 1408C2842.33 1408 2857.33 1406 2872 1402C2886.67 1398 2899.67 1393 2911 1387L3013 1636C2983 1650.67 2948.17 1661.67 2908.5 1669C2868.83 1676.33 2828.67 1680 2788 1680Z" fill="#E28F74" stroke="#E28F74" stroke-width="90" stroke-miterlimit="10"/>
<path d="M5236 1664V124H5552V1011H5580L5920 587H6293L5851 1103L6316 1664H5943L5577 1204H5552V1664H5236Z" fill="#E28F74" stroke="#E28F74" stroke-width="90" stroke-miterlimit="10"/>
<path d="M180 1640V100H496V987H524L864 563H1237L795 1079L1260 1640H887L521 1180H496V1640H180Z" fill="#4E1E0B" stroke="#4E1E0B" stroke-width="120" stroke-miterlimit="10"/>
<path d="M1726 1656C1662 1656 1600.67 1645 1542 1623C1483.33 1601 1431.83 1569.83 1387.5 1529.5C1343.17 1489.17 1309.67 1442 1287 1388L1535 1279C1551.67 1309.67 1576.67 1339.17 1610 1367.5C1643.33 1395.83 1682.67 1410 1728 1410C1763.33 1410 1792.33 1401 1815 1383C1837.67 1365 1849 1344.67 1849 1322C1849 1296 1835.83 1274.83 1809.5 1258.5C1783.17 1242.17 1752.17 1228.83 1716.5 1218.5C1680.83 1208.17 1648.33 1198.67 1619 1190C1568.33 1174.67 1520.5 1153.5 1475.5 1126.5C1430.5 1099.5 1394 1065 1366 1023C1338 981 1324 930 1324 870C1324 806.667 1340.33 750.833 1373 702.5C1405.67 654.167 1450.67 616.333 1508 589C1565.33 561.667 1630.67 548 1704 548C1795.33 548 1877.5 569 1950.5 611C2023.5 653 2075.33 708.667 2106 778L1863 883C1850.33 861.667 1831.83 841 1807.5 821C1783.17 801 1752.33 791 1715 791C1683.67 791 1657.67 799 1637 815C1616.33 831 1606 851 1606 875C1606 899 1616.33 918.5 1637 933.5C1657.67 948.5 1684 961 1716 971C1748 981 1781.33 991.333 1816 1002C1842.67 1009.33 1873.67 1019.83 1909 1033.5C1944.33 1047.17 1978.83 1065.67 2012.5 1089C2046.17 1112.33 2074.17 1142.33 2096.5 1179C2118.83 1215.67 2130 1260.67 2130 1314C2130 1381.33 2111.67 1440.67 2075 1492C2038.33 1543.33 1989.33 1583.5 1928 1612.5C1866.67 1641.5 1799.33 1656 1726 1656Z" fill="#4E1E0B" stroke="#4E1E0B" stroke-width="120" stroke-miterlimit="10"/>
<path d="M2764 1656C2631.33 1656 2532.67 1619.17 2468 1545.5C2403.33 1471.83 2371 1377.33 2371 1262V826H2191V564H2371V254H2687V564H2936V826H2687V1254C2687 1300 2698.17 1333.17 2720.5 1353.5C2742.83 1373.83 2770.33 1384 2803 1384C2818.33 1384 2833.33 1382 2848 1378C2862.67 1374 2875.67 1369 2887 1363L2989 1612C2959 1626.67 2924.17 1637.67 2884.5 1645C2844.83 1652.33 2804.67 1656 2764 1656Z" fill="#4E1E0B" stroke="#4E1E0B" stroke-width="120" stroke-miterlimit="10"/>
<path d="M3422 1656C3348.67 1656 3284.5 1641.33 3229.5 1612C3174.5 1582.67 3131.67 1543.17 3101 1493.5C3070.33 1443.83 3055 1388.67 3055 1328C3055 1231.33 3093.83 1151.67 3171.5 1089C3249.17 1026.33 3358.33 995 3499 995H3702V941C3702 899 3686.5 865.667 3655.5 841C3624.5 816.333 3581 804 3525 804C3477 804 3424.83 811.833 3368.5 827.5C3312.17 843.167 3265.33 862.667 3228 886L3123 648C3163 624.667 3221.67 602.167 3299 580.5C3376.33 558.833 3463.33 548 3560 548C3660.67 548 3740.67 560.667 3800 586C3859.33 611.333 3903.5 644 3932.5 684C3961.5 724 3980.33 766.333 3989 811C3997.67 855.667 4002 897.667 4002 937V1261C4002 1297.67 4006.5 1325.5 4015.5 1344.5C4024.5 1363.5 4040.67 1376.67 4064 1384L4088 1392L3977 1656L3940 1644C3893.33 1628.67 3855.33 1609.83 3826 1587.5C3796.67 1565.17 3775.33 1541.67 3762 1517H3758C3730 1555 3685.83 1587.67 3625.5 1615C3565.17 1642.33 3497.33 1656 3422 1656ZM3502 1419C3527.33 1419 3556.83 1414 3590.5 1404C3624.17 1394 3653.67 1377.33 3679 1354C3704.33 1330.67 3717 1299.33 3717 1260V1193H3537C3419 1193 3360 1231.33 3360 1308C3360 1342.67 3373.33 1369.83 3400 1389.5C3426.67 1409.17 3460.67 1419 3502 1419Z" fill="#4E1E0B" stroke="#4E1E0B" stroke-width="120" stroke-miterlimit="10"/>
<path d="M4764 1652C4657.33 1652 4560.17 1627.5 4472.5 1578.5C4384.83 1529.5 4315 1463.17 4263 1379.5C4211 1295.83 4185 1202 4185 1098C4185 1020.67 4199.67 948.667 4229 882C4258.33 815.333 4299.17 757 4351.5 707C4403.83 657 4464.33 618 4533 590C4601.67 562 4675 548 4753 548C4813.67 548 4872.83 556.833 4930.5 574.5C4988.17 592.167 5040 616.333 5086 647L4970 901C4942.67 875.667 4911.33 856 4876 842C4840.67 828 4802.33 821 4761 821C4675 821 4607.67 848.333 4559 903C4510.33 957.667 4486 1022.33 4486 1097C4486 1149.67 4497.83 1197.33 4521.5 1240C4545.17 1282.67 4577.5 1316.5 4618.5 1341.5C4659.5 1366.5 4706.33 1379 4759 1379C4803 1379 4845 1371.33 4885 1356C4925 1340.67 4954.67 1324 4974 1306L5087 1565C5049 1588.33 5002 1608.67 4946 1626C4890 1643.33 4829.33 1652 4764 1652Z" fill="#4E1E0B" stroke="#4E1E0B" stroke-width="120" stroke-miterlimit="10"/>
<path d="M5212 1640V100H5528V987H5556L5896 563H6269L5827 1079L6292 1640H5919L5553 1180H5528V1640H5212Z" fill="#4E1E0B" stroke="#4E1E0B" stroke-width="120" stroke-miterlimit="10"/>
<path d="M180 1640V100H496V987H524L864 563H1237L795 1079L1260 1640H887L521 1180H496V1640H180Z" fill="#F6D2C4" stroke="#F6D2C4" stroke-width="90" stroke-miterlimit="10"/>
<path d="M1726 1656C1662 1656 1600.67 1645 1542 1623C1483.33 1601 1431.83 1569.83 1387.5 1529.5C1343.17 1489.17 1309.67 1442 1287 1388L1535 1279C1551.67 1309.67 1576.67 1339.17 1610 1367.5C1643.33 1395.83 1682.67 1410 1728 1410C1763.33 1410 1792.33 1401 1815 1383C1837.67 1365 1849 1344.67 1849 1322C1849 1296 1835.83 1274.83 1809.5 1258.5C1783.17 1242.17 1752.17 1228.83 1716.5 1218.5C1680.83 1208.17 1648.33 1198.67 1619 1190C1568.33 1174.67 1520.5 1153.5 1475.5 1126.5C1430.5 1099.5 1394 1065 1366 1023C1338 981 1324 930 1324 870C1324 806.667 1340.33 750.833 1373 702.5C1405.67 654.167 1450.67 616.333 1508 589C1565.33 561.667 1630.67 548 1704 548C1795.33 548 1877.5 569 1950.5 611C2023.5 653 2075.33 708.667 2106 778L1863 883C1850.33 861.667 1831.83 841 1807.5 821C1783.17 801 1752.33 791 1715 791C1683.67 791 1657.67 799 1637 815C1616.33 831 1606 851 1606 875C1606 899 1616.33 918.5 1637 933.5C1657.67 948.5 1684 961 1716 971C1748 981 1781.33 991.333 1816 1002C1842.67 1009.33 1873.67 1019.83 1909 1033.5C1944.33 1047.17 1978.83 1065.67 2012.5 1089C2046.17 1112.33 2074.17 1142.33 2096.5 1179C2118.83 1215.67 2130 1260.67 2130 1314C2130 1381.33 2111.67 1440.67 2075 1492C2038.33 1543.33 1989.33 1583.5 1928 1612.5C1866.67 1641.5 1799.33 1656 1726 1656Z" fill="#F6D2C4" stroke="#F6D2C4" stroke-width="90" stroke-miterlimit="10"/>
<path d="M2764 1656C2631.33 1656 2532.67 1619.17 2468 1545.5C2403.33 1471.83 2371 1377.33 2371 1262V826H2191V564H2371V254H2687V564H2936V826H2687V1254C2687 1300 2698.17 1333.17 2720.5 1353.5C2742.83 1373.83 2770.33 1384 2803 1384C2818.33 1384 2833.33 1382 2848 1378C2862.67 1374 2875.67 1369 2887 1363L2989 1612C2959 1626.67 2924.17 1637.67 2884.5 1645C2844.83 1652.33 2804.67 1656 2764 1656Z" fill="#F6D2C4" stroke="#F6D2C4" stroke-width="90" stroke-miterlimit="10"/>
<path d="M3422 1656C3348.67 1656 3284.5 1641.33 3229.5 1612C3174.5 1582.67 3131.67 1543.17 3101 1493.5C3070.33 1443.83 3055 1388.67 3055 1328C3055 1231.33 3093.83 1151.67 3171.5 1089C3249.17 1026.33 3358.33 995 3499 995H3702V941C3702 899 3686.5 865.667 3655.5 841C3624.5 816.333 3581 804 3525 804C3477 804 3424.83 811.833 3368.5 827.5C3312.17 843.167 3265.33 862.667 3228 886L3123 648C3163 624.667 3221.67 602.167 3299 580.5C3376.33 558.833 3463.33 548 3560 548C3660.67 548 3740.67 560.667 3800 586C3859.33 611.333 3903.5 644 3932.5 684C3961.5 724 3980.33 766.333 3989 811C3997.67 855.667 4002 897.667 4002 937V1261C4002 1297.67 4006.5 1325.5 4015.5 1344.5C4024.5 1363.5 4040.67 1376.67 4064 1384L4088 1392L3977 1656L3940 1644C3893.33 1628.67 3855.33 1609.83 3826 1587.5C3796.67 1565.17 3775.33 1541.67 3762 1517H3758C3730 1555 3685.83 1587.67 3625.5 1615C3565.17 1642.33 3497.33 1656 3422 1656ZM3502 1419C3527.33 1419 3556.83 1414 3590.5 1404C3624.17 1394 3653.67 1377.33 3679 1354C3704.33 1330.67 3717 1299.33 3717 1260V1193H3537C3419 1193 3360 1231.33 3360 1308C3360 1342.67 3373.33 1369.83 3400 1389.5C3426.67 1409.17 3460.67 1419 3502 1419Z" fill="#F6D2C4" stroke="#F6D2C4" stroke-width="90" stroke-miterlimit="10"/>
<path d="M4764 1652C4657.33 1652 4560.17 1627.5 4472.5 1578.5C4384.83 1529.5 4315 1463.17 4263 1379.5C4211 1295.83 4185 1202 4185 1098C4185 1020.67 4199.67 948.667 4229 882C4258.33 815.333 4299.17 757 4351.5 707C4403.83 657 4464.33 618 4533 590C4601.67 562 4675 548 4753 548C4813.67 548 4872.83 556.833 4930.5 574.5C4988.17 592.167 5040 616.333 5086 647L4970 901C4942.67 875.667 4911.33 856 4876 842C4840.67 828 4802.33 821 4761 821C4675 821 4607.67 848.333 4559 903C4510.33 957.667 4486 1022.33 4486 1097C4486 1149.67 4497.83 1197.33 4521.5 1240C4545.17 1282.67 4577.5 1316.5 4618.5 1341.5C4659.5 1366.5 4706.33 1379 4759 1379C4803 1379 4845 1371.33 4885 1356C4925 1340.67 4954.67 1324 4974 1306L5087 1565C5049 1588.33 5002 1608.67 4946 1626C4890 1643.33 4829.33 1652 4764 1652Z" fill="#F6D2C4" stroke="#F6D2C4" stroke-width="90" stroke-miterlimit="10"/>
<path d="M5212 1640V100H5528V987H5556L5896 563H6269L5827 1079L6292 1640H5919L5553 1180H5528V1640H5212Z" fill="#F6D2C4" stroke="#F6D2C4" stroke-width="90" stroke-miterlimit="10"/>
</g>
<mask id="mask2_22_8" style="mask-type:luminance" maskUnits="userSpaceOnUse" x="0" y="553" width="6466" height="197">
<path d="M6466 553.3H0V749.3H6466V553.3Z" fill="white"/>
</mask>
<g mask="url(#mask2_22_8)">
<path d="M212 1672V132H528V1019H556L896 595H1269L827 1111L1292 1672H919L553 1212H528V1672H212Z" fill="#CC6645" stroke="#CC6645" stroke-width="90" stroke-miterlimit="10"/>
<path d="M1758 1688C1694 1688 1632.67 1677 1574 1655C1515.33 1633 1463.83 1601.83 1419.5 1561.5C1375.17 1521.17 1341.67 1474 1319 1420L1567 1311C1583.67 1341.67 1608.67 1371.17 1642 1399.5C1675.33 1427.83 1714.67 1442 1760 1442C1795.33 1442 1824.33 1433 1847 1415C1869.67 1397 1881 1376.67 1881 1354C1881 1328 1867.83 1306.83 1841.5 1290.5C1815.17 1274.17 1784.17 1260.83 1748.5 1250.5C1712.83 1240.17 1680.33 1230.67 1651 1222C1600.33 1206.67 1552.5 1185.5 1507.5 1158.5C1462.5 1131.5 1426 1097 1398 1055C1370 1013 1356 962 1356 902C1356 838.667 1372.33 782.833 1405 734.5C1437.67 686.167 1482.67 648.333 1540 621C1597.33 593.667 1662.67 580 1736 580C1827.33 580 1909.5 601 1982.5 643C2055.5 685 2107.33 740.667 2138 810L1895 915C1882.33 893.667 1863.83 873 1839.5 853C1815.17 833 1784.33 823 1747 823C1715.67 823 1689.67 831 1669 847C1648.33 863 1638 883 1638 907C1638 931 1648.33 950.5 1669 965.5C1689.67 980.5 1716 993 1748 1003C1780 1013 1813.33 1023.33 1848 1034C1874.67 1041.33 1905.67 1051.83 1941 1065.5C1976.33 1079.17 2010.83 1097.67 2044.5 1121C2078.17 1144.33 2106.17 1174.33 2128.5 1211C2150.83 1247.67 2162 1292.67 2162 1346C2162 1413.33 2143.67 1472.67 2107 1524C2070.33 1575.33 2021.33 1615.5 1960 1644.5C1898.67 1673.5 1831.33 1688 1758 1688Z" fill="#CC6645" stroke="#CC6645" stroke-width="90" stroke-miterlimit="10"/>
<path d="M2796 1688C2663.33 1688 2564.67 1651.17 2500 1577.5C2435.33 1503.83 2403 1409.33 2403 1294V858H2223V596H2403V286H2719V596H2968V858H2719V1286C2719 1332 2730.17 1365.17 2752.5 1385.5C2774.83 1405.83 2802.33 1416 2835 1416C2850.33 1416 2865.33 1414 2880 1410C2894.67 1406 2907.67 1401 2919 1395L3021 1644C2991 1658.67 2956.17 1669.67 2916.5 1677C2876.83 1684.33 2836.67 1688 2796 1688Z" fill="#CC6645" stroke="#CC6645" stroke-width="90" stroke-miterlimit="10"/>
<path d="M3454 1688C3380.67 1688 3316.5 1673.33 3261.5 1644C3206.5 1614.67 3163.67 1575.17 3133 1525.5C3102.33 1475.83 3087 1420.67 3087 1360C3087 1263.33 3125.83 1183.67 3203.5 1121C3281.17 1058.33 3390.33 1027 3531 1027H3734V973C3734 931 3718.5 897.667 3687.5 873C3656.5 848.333 3613 836 3557 836C3509 836 3456.83 843.833 3400.5 859.5C3344.17 875.167 3297.33 894.667 3260 918L3155 680C3195 656.667 3253.67 634.167 3331 612.5C3408.33 590.833 3495.33 580 3592 580C3692.67 580 3772.67 592.667 3832 618C3891.33 643.333 3935.5 676 3964.5 716C3993.5 756 4012.33 798.333 4021 843C4029.67 887.667 4034 929.667 4034 969V1293C4034 1329.67 4038.5 1357.5 4047.5 1376.5C4056.5 1395.5 4072.67 1408.67 4096 1416L4120 1424L4009 1688L3972 1676C3925.33 1660.67 3887.33 1641.83 3858 1619.5C3828.67 1597.17 3807.33 1573.67 3794 1549H3790C3762 1587 3717.83 1619.67 3657.5 1647C3597.17 1674.33 3529.33 1688 3454 1688ZM3534 1451C3559.33 1451 3588.83 1446 3622.5 1436C3656.17 1426 3685.67 1409.33 3711 1386C3736.33 1362.67 3749 1331.33 3749 1292V1225H3569C3451 1225 3392 1263.33 3392 1340C3392 1374.67 3405.33 1401.83 3432 1421.5C3458.67 1441.17 3492.67 1451 3534 1451Z" fill="#CC6645" stroke="#CC6645" stroke-width="90" stroke-miterlimit="10"/>
<path d="M4796 1684C4689.33 1684 4592.17 1659.5 4504.5 1610.5C4416.83 1561.5 4347 1495.17 4295 1411.5C4243 1327.83 4217 1234 4217 1130C4217 1052.67 4231.67 980.667 4261 914C4290.33 847.333 4331.17 789 4383.5 739C4435.83 689 4496.33 650 4565 622C4633.67 594 4707 580 4785 580C4845.67 580 4904.83 588.833 4962.5 606.5C5020.17 624.167 5072 648.333 5118 679L5002 933C4974.67 907.667 4943.33 888 4908 874C4872.67 860 4834.33 853 4793 853C4707 853 4639.67 880.333 4591 935C4542.33 989.667 4518 1054.33 4518 1129C4518 1181.67 4529.83 1229.33 4553.5 1272C4577.17 1314.67 4609.5 1348.5 4650.5 1373.5C4691.5 1398.5 4738.33 1411 4791 1411C4835 1411 4877 1403.33 4917 1388C4957 1372.67 4986.67 1356 5006 1338L5119 1597C5081 1620.33 5034 1640.67 4978 1658C4922 1675.33 4861.33 1684 4796 1684Z" fill="#CC6645" stroke="#CC6645" stroke-width="90" stroke-miterlimit="10"/>
<path d="M5244 1672V132H5560V1019H5588L5928 595H6301L5859 1111L6324 1672H5951L5585 1212H5560V1672H5244Z" fill="#CC6645" stroke="#CC6645" stroke-width="90" stroke-miterlimit="10"/>
<path d="M180 1640V100H496V987H524L864 563H1237L795 1079L1260 1640H887L521 1180H496V1640H180Z" fill="#4E1E0B" stroke="#4E1E0B" stroke-width="120" stroke-miterlimit="10"/>
<path d="M1726 1656C1662 1656 1600.67 1645 1542 1623C1483.33 1601 1431.83 1569.83 1387.5 1529.5C1343.17 1489.17 1309.67 1442 1287 1388L1535 1279C1551.67 1309.67 1576.67 1339.17 1610 1367.5C1643.33 1395.83 1682.67 1410 1728 1410C1763.33 1410 1792.33 1401 1815 1383C1837.67 1365 1849 1344.67 1849 1322C1849 1296 1835.83 1274.83 1809.5 1258.5C1783.17 1242.17 1752.17 1228.83 1716.5 1218.5C1680.83 1208.17 1648.33 1198.67 1619 1190C1568.33 1174.67 1520.5 1153.5 1475.5 1126.5C1430.5 1099.5 1394 1065 1366 1023C1338 981 1324 930 1324 870C1324 806.667 1340.33 750.833 1373 702.5C1405.67 654.167 1450.67 616.333 1508 589C1565.33 561.667 1630.67 548 1704 548C1795.33 548 1877.5 569 1950.5 611C2023.5 653 2075.33 708.667 2106 778L1863 883C1850.33 861.667 1831.83 841 1807.5 821C1783.17 801 1752.33 791 1715 791C1683.67 791 1657.67 799 1637 815C1616.33 831 1606 851 1606 875C1606 899 1616.33 918.5 1637 933.5C1657.67 948.5 1684 961 1716 971C1748 981 1781.33 991.333 1816 1002C1842.67 1009.33 1873.67 1019.83 1909 1033.5C1944.33 1047.17 1978.83 1065.67 2012.5 1089C2046.17 1112.33 2074.17 1142.33 2096.5 1179C2118.83 1215.67 2130 1260.67 2130 1314C2130 1381.33 2111.67 1440.67 2075 1492C2038.33 1543.33 1989.33 1583.5 1928 1612.5C1866.67 1641.5 1799.33 1656 1726 1656Z" fill="#4E1E0B" stroke="#4E1E0B" stroke-width="120" stroke-miterlimit="10"/>
<path d="M2764 1656C2631.33 1656 2532.67 1619.17 2468 1545.5C2403.33 1471.83 2371 1377.33 2371 1262V826H2191V564H2371V254H2687V564H2936V826H2687V1254C2687 1300 2698.17 1333.17 2720.5 1353.5C2742.83 1373.83 2770.33 1384 2803 1384C2818.33 1384 2833.33 1382 2848 1378C2862.67 1374 2875.67 1369 2887 1363L2989 1612C2959 1626.67 2924.17 1637.67 2884.5 1645C2844.83 1652.33 2804.67 1656 2764 1656Z" fill="#4E1E0B" stroke="#4E1E0B" stroke-width="120" stroke-miterlimit="10"/>
<path d="M3422 1656C3348.67 1656 3284.5 1641.33 3229.5 1612C3174.5 1582.67 3131.67 1543.17 3101 1493.5C3070.33 1443.83 3055 1388.67 3055 1328C3055 1231.33 3093.83 1151.67 3171.5 1089C3249.17 1026.33 3358.33 995 3499 995H3702V941C3702 899 3686.5 865.667 3655.5 841C3624.5 816.333 3581 804 3525 804C3477 804 3424.83 811.833 3368.5 827.5C3312.17 843.167 3265.33 862.667 3228 886L3123 648C3163 624.667 3221.67 602.167 3299 580.5C3376.33 558.833 3463.33 548 3560 548C3660.67 548 3740.67 560.667 3800 586C3859.33 611.333 3903.5 644 3932.5 684C3961.5 724 3980.33 766.333 3989 811C3997.67 855.667 4002 897.667 4002 937V1261C4002 1297.67 4006.5 1325.5 4015.5 1344.5C4024.5 1363.5 4040.67 1376.67 4064 1384L4088 1392L3977 1656L3940 1644C3893.33 1628.67 3855.33 1609.83 3826 1587.5C3796.67 1565.17 3775.33 1541.67 3762 1517H3758C3730 1555 3685.83 1587.67 3625.5 1615C3565.17 1642.33 3497.33 1656 3422 1656ZM3502 1419C3527.33 1419 3556.83 1414 3590.5 1404C3624.17 1394 3653.67 1377.33 3679 1354C3704.33 1330.67 3717 1299.33 3717 1260V1193H3537C3419 1193 3360 1231.33 3360 1308C3360 1342.67 3373.33 1369.83 3400 1389.5C3426.67 1409.17 3460.67 1419 3502 1419Z" fill="#4E1E0B" stroke="#4E1E0B" stroke-width="120" stroke-miterlimit="10"/>
<path d="M4764 1652C4657.33 1652 4560.17 1627.5 4472.5 1578.5C4384.83 1529.5 4315 1463.17 4263 1379.5C4211 1295.83 4185 1202 4185 1098C4185 1020.67 4199.67 948.667 4229 882C4258.33 815.333 4299.17 757 4351.5 707C4403.83 657 4464.33 618 4533 590C4601.67 562 4675 548 4753 548C4813.67 548 4872.83 556.833 4930.5 574.5C4988.17 592.167 5040 616.333 5086 647L4970 901C4942.67 875.667 4911.33 856 4876 842C4840.67 828 4802.33 821 4761 821C4675 821 4607.67 848.333 4559 903C4510.33 957.667 4486 1022.33 4486 1097C4486 1149.67 4497.83 1197.33 4521.5 1240C4545.17 1282.67 4577.5 1316.5 4618.5 1341.5C4659.5 1366.5 4706.33 1379 4759 1379C4803 1379 4845 1371.33 4885 1356C4925 1340.67 4954.67 1324 4974 1306L5087 1565C5049 1588.33 5002 1608.67 4946 1626C4890 1643.33 4829.33 1652 4764 1652Z" fill="#4E1E0B" stroke="#4E1E0B" stroke-width="120" stroke-miterlimit="10"/>
<path d="M5212 1640V100H5528V987H5556L5896 563H6269L5827 1079L6292 1640H5919L5553 1180H5528V1640H5212Z" fill="#4E1E0B" stroke="#4E1E0B" stroke-width="120" stroke-miterlimit="10"/>
<path d="M180 1640V100H496V987H524L864 563H1237L795 1079L1260 1640H887L521 1180H496V1640H180Z" fill="#E9A48D" stroke="#E9A48D" stroke-width="90" stroke-miterlimit="10"/>
<path d="M1726 1656C1662 1656 1600.67 1645 1542 1623C1483.33 1601 1431.83 1569.83 1387.5 1529.5C1343.17 1489.17 1309.67 1442 1287 1388L1535 1279C1551.67 1309.67 1576.67 1339.17 1610 1367.5C1643.33 1395.83 1682.67 1410 1728 1410C1763.33 1410 1792.33 1401 1815 1383C1837.67 1365 1849 1344.67 1849 1322C1849 1296 1835.83 1274.83 1809.5 1258.5C1783.17 1242.17 1752.17 1228.83 1716.5 1218.5C1680.83 1208.17 1648.33 1198.67 1619 1190C1568.33 1174.67 1520.5 1153.5 1475.5 1126.5C1430.5 1099.5 1394 1065 1366 1023C1338 981 1324 930 1324 870C1324 806.667 1340.33 750.833 1373 702.5C1405.67 654.167 1450.67 616.333 1508 589C1565.33 561.667 1630.67 548 1704 548C1795.33 548 1877.5 569 1950.5 611C2023.5 653 2075.33 708.667 2106 778L1863 883C1850.33 861.667 1831.83 841 1807.5 821C1783.17 801 1752.33 791 1715 791C1683.67 791 1657.67 799 1637 815C1616.33 831 1606 851 1606 875C1606 899 1616.33 918.5 1637 933.5C1657.67 948.5 1684 961 1716 971C1748 981 1781.33 991.333 1816 1002C1842.67 1009.33 1873.67 1019.83 1909 1033.5C1944.33 1047.17 1978.83 1065.67 2012.5 1089C2046.17 1112.33 2074.17 1142.33 2096.5 1179C2118.83 1215.67 2130 1260.67 2130 1314C2130 1381.33 2111.67 1440.67 2075 1492C2038.33 1543.33 1989.33 1583.5 1928 1612.5C1866.67 1641.5 1799.33 1656 1726 1656Z" fill="#E9A48D" stroke="#E9A48D" stroke-width="90" stroke-miterlimit="10"/>
<path d="M2764 1656C2631.33 1656 2532.67 1619.17 2468 1545.5C2403.33 1471.83 2371 1377.33 2371 1262V826H2191V564H2371V254H2687V564H2936V826H2687V1254C2687 1300 2698.17 1333.17 2720.5 1353.5C2742.83 1373.83 2770.33 1384 2803 1384C2818.33 1384 2833.33 1382 2848 1378C2862.67 1374 2875.67 1369 2887 1363L2989 1612C2959 1626.67 2924.17 1637.67 2884.5 1645C2844.83 1652.33 2804.67 1656 2764 1656Z" fill="#E9A48D" stroke="#E9A48D" stroke-width="90" stroke-miterlimit="10"/>
<path d="M3422 1656C3348.67 1656 3284.5 1641.33 3229.5 1612C3174.5 1582.67 3131.67 1543.17 3101 1493.5C3070.33 1443.83 3055 1388.67 3055 1328C3055 1231.33 3093.83 1151.67 3171.5 1089C3249.17 1026.33 3358.33 995 3499 995H3702V941C3702 899 3686.5 865.667 3655.5 841C3624.5 816.333 3581 804 3525 804C3477 804 3424.83 811.833 3368.5 827.5C3312.17 843.167 3265.33 862.667 3228 886L3123 648C3163 624.667 3221.67 602.167 3299 580.5C3376.33 558.833 3463.33 548 3560 548C3660.67 548 3740.67 560.667 3800 586C3859.33 611.333 3903.5 644 3932.5 684C3961.5 724 3980.33 766.333 3989 811C3997.67 855.667 4002 897.667 4002 937V1261C4002 1297.67 4006.5 1325.5 4015.5 1344.5C4024.5 1363.5 4040.67 1376.67 4064 1384L4088 1392L3977 1656L3940 1644C3893.33 1628.67 3855.33 1609.83 3826 1587.5C3796.67 1565.17 3775.33 1541.67 3762 1517H3758C3730 1555 3685.83 1587.67 3625.5 1615C3565.17 1642.33 3497.33 1656 3422 1656ZM3502 1419C3527.33 1419 3556.83 1414 3590.5 1404C3624.17 1394 3653.67 1377.33 3679 1354C3704.33 1330.67 3717 1299.33 3717 1260V1193H3537C3419 1193 3360 1231.33 3360 1308C3360 1342.67 3373.33 1369.83 3400 1389.5C3426.67 1409.17 3460.67 1419 3502 1419Z" fill="#E9A48D" stroke="#E9A48D" stroke-width="90" stroke-miterlimit="10"/>
<path d="M4764 1652C4657.33 1652 4560.17 1627.5 4472.5 1578.5C4384.83 1529.5 4315 1463.17 4263 1379.5C4211 1295.83 4185 1202 4185 1098C4185 1020.67 4199.67 948.667 4229 882C4258.33 815.333 4299.17 757 4351.5 707C4403.83 657 4464.33 618 4533 590C4601.67 562 4675 548 4753 548C4813.67 548 4872.83 556.833 4930.5 574.5C4988.17 592.167 5040 616.333 5086 647L4970 901C4942.67 875.667 4911.33 856 4876 842C4840.67 828 4802.33 821 4761 821C4675 821 4607.67 848.333 4559 903C4510.33 957.667 4486 1022.33 4486 1097C4486 1149.67 4497.83 1197.33 4521.5 1240C4545.17 1282.67 4577.5 1316.5 4618.5 1341.5C4659.5 1366.5 4706.33 1379 4759 1379C4803 1379 4845 1371.33 4885 1356C4925 1340.67 4954.67 1324 4974 1306L5087 1565C5049 1588.33 5002 1608.67 4946 1626C4890 1643.33 4829.33 1652 4764 1652Z" fill="#E9A48D" stroke="#E9A48D" stroke-width="90" stroke-miterlimit="10"/>
<path d="M5212 1640V100H5528V987H5556L5896 563H6269L5827 1079L6292 1640H5919L5553 1180H5528V1640H5212Z" fill="#E9A48D" stroke="#E9A48D" stroke-width="90" stroke-miterlimit="10"/>
</g>
<mask id="mask3_22_8" style="mask-type:luminance" maskUnits="userSpaceOnUse" x="0" y="780" width="6466" height="196">
<path d="M6466 780H0V976H6466V780Z" fill="white"/>
</mask>
<g mask="url(#mask3_22_8)">
<path d="M220 1680V140H536V1027H564L904 603H1277L835 1119L1300 1680H927L561 1220H536V1680H220Z" fill="#A14A27" stroke="#A14A27" stroke-width="90" stroke-miterlimit="10"/>
<path d="M1766 1696C1702 1696 1640.67 1685 1582 1663C1523.33 1641 1471.83 1609.83 1427.5 1569.5C1383.17 1529.17 1349.67 1482 1327 1428L1575 1319C1591.67 1349.67 1616.67 1379.17 1650 1407.5C1683.33 1435.83 1722.67 1450 1768 1450C1803.33 1450 1832.33 1441 1855 1423C1877.67 1405 1889 1384.67 1889 1362C1889 1336 1875.83 1314.83 1849.5 1298.5C1823.17 1282.17 1792.17 1268.83 1756.5 1258.5C1720.83 1248.17 1688.33 1238.67 1659 1230C1608.33 1214.67 1560.5 1193.5 1515.5 1166.5C1470.5 1139.5 1434 1105 1406 1063C1378 1021 1364 970 1364 910C1364 846.667 1380.33 790.833 1413 742.5C1445.67 694.167 1490.67 656.333 1548 629C1605.33 601.667 1670.67 588 1744 588C1835.33 588 1917.5 609 1990.5 651C2063.5 693 2115.33 748.667 2146 818L1903 923C1890.33 901.667 1871.83 881 1847.5 861C1823.17 841 1792.33 831 1755 831C1723.67 831 1697.67 839 1677 855C1656.33 871 1646 891 1646 915C1646 939 1656.33 958.5 1677 973.5C1697.67 988.5 1724 1001 1756 1011C1788 1021 1821.33 1031.33 1856 1042C1882.67 1049.33 1913.67 1059.83 1949 1073.5C1984.33 1087.17 2018.83 1105.67 2052.5 1129C2086.17 1152.33 2114.17 1182.33 2136.5 1219C2158.83 1255.67 2170 1300.67 2170 1354C2170 1421.33 2151.67 1480.67 2115 1532C2078.33 1583.33 2029.33 1623.5 1968 1652.5C1906.67 1681.5 1839.33 1696 1766 1696Z" fill="#A14A27" stroke="#A14A27" stroke-width="90" stroke-miterlimit="10"/>
<path d="M2804 1696C2671.33 1696 2572.67 1659.17 2508 1585.5C2443.33 1511.83 2411 1417.33 2411 1302V866H2231V604H2411V294H2727V604H2976V866H2727V1294C2727 1340 2738.17 1373.17 2760.5 1393.5C2782.83 1413.83 2810.33 1424 2843 1424C2858.33 1424 2873.33 1422 2888 1418C2902.67 1414 2915.67 1409 2927 1403L3029 1652C2999 1666.67 2964.17 1677.67 2924.5 1685C2884.83 1692.33 2844.67 1696 2804 1696Z" fill="#A14A27" stroke="#A14A27" stroke-width="90" stroke-miterlimit="10"/>
<path d="M3462 1696C3388.67 1696 3324.5 1681.33 3269.5 1652C3214.5 1622.67 3171.67 1583.17 3141 1533.5C3110.33 1483.83 3095 1428.67 3095 1368C3095 1271.33 3133.83 1191.67 3211.5 1129C3289.17 1066.33 3398.33 1035 3539 1035H3742V981C3742 939 3726.5 905.667 3695.5 881C3664.5 856.333 3621 844 3565 844C3517 844 3464.83 851.833 3408.5 867.5C3352.17 883.167 3305.33 902.667 3268 926L3163 688C3203 664.667 3261.67 642.167 3339 620.5C3416.33 598.833 3503.33 588 3600 588C3700.67 588 3780.67 600.667 3840 626C3899.33 651.333 3943.5 684 3972.5 724C4001.5 764 4020.33 806.333 4029 851C4037.67 895.667 4042 937.667 4042 977V1301C4042 1337.67 4046.5 1365.5 4055.5 1384.5C4064.5 1403.5 4080.67 1416.67 4104 1424L4128 1432L4017 1696L3980 1684C3933.33 1668.67 3895.33 1649.83 3866 1627.5C3836.67 1605.17 3815.33 1581.67 3802 1557H3798C3770 1595 3725.83 1627.67 3665.5 1655C3605.17 1682.33 3537.33 1696 3462 1696ZM3542 1459C3567.33 1459 3596.83 1454 3630.5 1444C3664.17 1434 3693.67 1417.33 3719 1394C3744.33 1370.67 3757 1339.33 3757 1300V1233H3577C3459 1233 3400 1271.33 3400 1348C3400 1382.67 3413.33 1409.83 3440 1429.5C3466.67 1449.17 3500.67 1459 3542 1459Z" fill="#A14A27" stroke="#A14A27" stroke-width="90" stroke-miterlimit="10"/>
<path d="M4804 1692C4697.33 1692 4600.17 1667.5 4512.5 1618.5C4424.83 1569.5 4355 1503.17 4303 1419.5C4251 1335.83 4225 1242 4225 1138C4225 1060.67 4239.67 988.667 4269 922C4298.33 855.333 4339.17 797 4391.5 747C4443.83 697 4504.33 658 4573 630C4641.67 602 4715 588 4793 588C4853.67 588 4912.83 596.833 4970.5 614.5C5028.17 632.167 5080 656.333 5126 687L5010 941C4982.67 915.667 4951.33 896 4916 882C4880.67 868 4842.33 861 4801 861C4715 861 4647.67 888.333 4599 943C4550.33 997.667 4526 1062.33 4526 1137C4526 1189.67 4537.83 1237.33 4561.5 1280C4585.17 1322.67 4617.5 1356.5 4658.5 1381.5C4699.5 1406.5 4746.33 1419 4799 1419C4843 1419 4885 1411.33 4925 1396C4965 1380.67 4994.67 1364 5014 1346L5127 1605C5089 1628.33 5042 1648.67 4986 1666C4930 1683.33 4869.33 1692 4804 1692Z" fill="#A14A27" stroke="#A14A27" stroke-width="90" stroke-miterlimit="10"/>
<path d="M5252 1680V140H5568V1027H5596L5936 603H6309L5867 1119L6332 1680H5959L5593 1220H5568V1680H5252Z" fill="#A14A27" stroke="#A14A27" stroke-width="90" stroke-miterlimit="10"/>
<path d="M180 1640V100H496V987H524L864 563H1237L795 1079L1260 1640H887L521 1180H496V1640H180Z" fill="#4E1E0B" stroke="#4E1E0B" stroke-width="120" stroke-miterlimit="10"/>
<path d="M1726 1656C1662 1656 1600.67 1645 1542 1623C1483.33 1601 1431.83 1569.83 1387.5 1529.5C1343.17 1489.17 1309.67 1442 1287 1388L1535 1279C1551.67 1309.67 1576.67 1339.17 1610 1367.5C1643.33 1395.83 1682.67 1410 1728 1410C1763.33 1410 1792.33 1401 1815 1383C1837.67 1365 1849 1344.67 1849 1322C1849 1296 1835.83 1274.83 1809.5 1258.5C1783.17 1242.17 1752.17 1228.83 1716.5 1218.5C1680.83 1208.17 1648.33 1198.67 1619 1190C1568.33 1174.67 1520.5 1153.5 1475.5 1126.5C1430.5 1099.5 1394 1065 1366 1023C1338 981 1324 930 1324 870C1324 806.667 1340.33 750.833 1373 702.5C1405.67 654.167 1450.67 616.333 1508 589C1565.33 561.667 1630.67 548 1704 548C1795.33 548 1877.5 569 1950.5 611C2023.5 653 2075.33 708.667 2106 778L1863 883C1850.33 861.667 1831.83 841 1807.5 821C1783.17 801 1752.33 791 1715 791C1683.67 791 1657.67 799 1637 815C1616.33 831 1606 851 1606 875C1606 899 1616.33 918.5 1637 933.5C1657.67 948.5 1684 961 1716 971C1748 981 1781.33 991.333 1816 1002C1842.67 1009.33 1873.67 1019.83 1909 1033.5C1944.33 1047.17 1978.83 1065.67 2012.5 1089C2046.17 1112.33 2074.17 1142.33 2096.5 1179C2118.83 1215.67 2130 1260.67 2130 1314C2130 1381.33 2111.67 1440.67 2075 1492C2038.33 1543.33 1989.33 1583.5 1928 1612.5C1866.67 1641.5 1799.33 1656 1726 1656Z" fill="#4E1E0B" stroke="#4E1E0B" stroke-width="120" stroke-miterlimit="10"/>
<path d="M2764 1656C2631.33 1656 2532.67 1619.17 2468 1545.5C2403.33 1471.83 2371 1377.33 2371 1262V826H2191V564H2371V254H2687V564H2936V826H2687V1254C2687 1300 2698.17 1333.17 2720.5 1353.5C2742.83 1373.83 2770.33 1384 2803 1384C2818.33 1384 2833.33 1382 2848 1378C2862.67 1374 2875.67 1369 2887 1363L2989 1612C2959 1626.67 2924.17 1637.67 2884.5 1645C2844.83 1652.33 2804.67 1656 2764 1656Z" fill="#4E1E0B" stroke="#4E1E0B" stroke-width="120" stroke-miterlimit="10"/>
<path d="M3422 1656C3348.67 1656 3284.5 1641.33 3229.5 1612C3174.5 1582.67 3131.67 1543.17 3101 1493.5C3070.33 1443.83 3055 1388.67 3055 1328C3055 1231.33 3093.83 1151.67 3171.5 1089C3249.17 1026.33 3358.33 995 3499 995H3702V941C3702 899 3686.5 865.667 3655.5 841C3624.5 816.333 3581 804 3525 804C3477 804 3424.83 811.833 3368.5 827.5C3312.17 843.167 3265.33 862.667 3228 886L3123 648C3163 624.667 3221.67 602.167 3299 580.5C3376.33 558.833 3463.33 548 3560 548C3660.67 548 3740.67 560.667 3800 586C3859.33 611.333 3903.5 644 3932.5 684C3961.5 724 3980.33 766.333 3989 811C3997.67 855.667 4002 897.667 4002 937V1261C4002 1297.67 4006.5 1325.5 4015.5 1344.5C4024.5 1363.5 4040.67 1376.67 4064 1384L4088 1392L3977 1656L3940 1644C3893.33 1628.67 3855.33 1609.83 3826 1587.5C3796.67 1565.17 3775.33 1541.67 3762 1517H3758C3730 1555 3685.83 1587.67 3625.5 1615C3565.17 1642.33 3497.33 1656 3422 1656ZM3502 1419C3527.33 1419 3556.83 1414 3590.5 1404C3624.17 1394 3653.67 1377.33 3679 1354C3704.33 1330.67 3717 1299.33 3717 1260V1193H3537C3419 1193 3360 1231.33 3360 1308C3360 1342.67 3373.33 1369.83 3400 1389.5C3426.67 1409.17 3460.67 1419 3502 1419Z" fill="#4E1E0B" stroke="#4E1E0B" stroke-width="120" stroke-miterlimit="10"/>
<path d="M4764 1652C4657.33 1652 4560.17 1627.5 4472.5 1578.5C4384.83 1529.5 4315 1463.17 4263 1379.5C4211 1295.83 4185 1202 4185 1098C4185 1020.67 4199.67 948.667 4229 882C4258.33 815.333 4299.17 757 4351.5 707C4403.83 657 4464.33 618 4533 590C4601.67 562 4675 548 4753 548C4813.67 548 4872.83 556.833 4930.5 574.5C4988.17 592.167 5040 616.333 5086 647L4970 901C4942.67 875.667 4911.33 856 4876 842C4840.67 828 4802.33 821 4761 821C4675 821 4607.67 848.333 4559 903C4510.33 957.667 4486 1022.33 4486 1097C4486 1149.67 4497.83 1197.33 4521.5 1240C4545.17 1282.67 4577.5 1316.5 4618.5 1341.5C4659.5 1366.5 4706.33 1379 4759 1379C4803 1379 4845 1371.33 4885 1356C4925 1340.67 4954.67 1324 4974 1306L5087 1565C5049 1588.33 5002 1608.67 4946 1626C4890 1643.33 4829.33 1652 4764 1652Z" fill="#4E1E0B" stroke="#4E1E0B" stroke-width="120" stroke-miterlimit="10"/>
<path d="M5212 1640V100H5528V987H5556L5896 563H6269L5827 1079L6292 1640H5919L5553 1180H5528V1640H5212Z" fill="#4E1E0B" stroke="#4E1E0B" stroke-width="120" stroke-miterlimit="10"/>
<path d="M180 1640V100H496V987H524L864 563H1237L795 1079L1260 1640H887L521 1180H496V1640H180Z" fill="#D97757" stroke="#D97757" stroke-width="90" stroke-miterlimit="10"/>
<path d="M1726 1656C1662 1656 1600.67 1645 1542 1623C1483.33 1601 1431.83 1569.83 1387.5 1529.5C1343.17 1489.17 1309.67 1442 1287 1388L1535 1279C1551.67 1309.67 1576.67 1339.17 1610 1367.5C1643.33 1395.83 1682.67 1410 1728 1410C1763.33 1410 1792.33 1401 1815 1383C1837.67 1365 1849 1344.67 1849 1322C1849 1296 1835.83 1274.83 1809.5 1258.5C1783.17 1242.17 1752.17 1228.83 1716.5 1218.5C1680.83 1208.17 1648.33 1198.67 1619 1190C1568.33 1174.67 1520.5 1153.5 1475.5 1126.5C1430.5 1099.5 1394 1065 1366 1023C1338 981 1324 930 1324 870C1324 806.667 1340.33 750.833 1373 702.5C1405.67 654.167 1450.67 616.333 1508 589C1565.33 561.667 1630.67 548 1704 548C1795.33 548 1877.5 569 1950.5 611C2023.5 653 2075.33 708.667 2106 778L1863 883C1850.33 861.667 1831.83 841 1807.5 821C1783.17 801 1752.33 791 1715 791C1683.67 791 1657.67 799 1637 815C1616.33 831 1606 851 1606 875C1606 899 1616.33 918.5 1637 933.5C1657.67 948.5 1684 961 1716 971C1748 981 1781.33 991.333 1816 1002C1842.67 1009.33 1873.67 1019.83 1909 1033.5C1944.33 1047.17 1978.83 1065.67 2012.5 1089C2046.17 1112.33 2074.17 1142.33 2096.5 1179C2118.83 1215.67 2130 1260.67 2130 1314C2130 1381.33 2111.67 1440.67 2075 1492C2038.33 1543.33 1989.33 1583.5 1928 1612.5C1866.67 1641.5 1799.33 1656 1726 1656Z" fill="#D97757" stroke="#D97757" stroke-width="90" stroke-miterlimit="10"/>
<path d="M2764 1656C2631.33 1656 2532.67 1619.17 2468 1545.5C2403.33 1471.83 2371 1377.33 2371 1262V826H2191V564H2371V254H2687V564H2936V826H2687V1254C2687 1300 2698.17 1333.17 2720.5 1353.5C2742.83 1373.83 2770.33 1384 2803 1384C2818.33 1384 2833.33 1382 2848 1378C2862.67 1374 2875.67 1369 2887 1363L2989 1612C2959 1626.67 2924.17 1637.67 2884.5 1645C2844.83 1652.33 2804.67 1656 2764 1656Z" fill="#D97757" stroke="#D97757" stroke-width="90" stroke-miterlimit="10"/>
<path d="M3422 1656C3348.67 1656 3284.5 1641.33 3229.5 1612C3174.5 1582.67 3131.67 1543.17 3101 1493.5C3070.33 1443.83 3055 1388.67 3055 1328C3055 1231.33 3093.83 1151.67 3171.5 1089C3249.17 1026.33 3358.33 995 3499 995H3702V941C3702 899 3686.5 865.667 3655.5 841C3624.5 816.333 3581 804 3525 804C3477 804 3424.83 811.833 3368.5 827.5C3312.17 843.167 3265.33 862.667 3228 886L3123 648C3163 624.667 3221.67 602.167 3299 580.5C3376.33 558.833 3463.33 548 3560 548C3660.67 548 3740.67 560.667 3800 586C3859.33 611.333 3903.5 644 3932.5 684C3961.5 724 3980.33 766.333 3989 811C3997.67 855.667 4002 897.667 4002 937V1261C4002 1297.67 4006.5 1325.5 4015.5 1344.5C4024.5 1363.5 4040.67 1376.67 4064 1384L4088 1392L3977 1656L3940 1644C3893.33 1628.67 3855.33 1609.83 3826 1587.5C3796.67 1565.17 3775.33 1541.67 3762 1517H3758C3730 1555 3685.83 1587.67 3625.5 1615C3565.17 1642.33 3497.33 1656 3422 1656ZM3502 1419C3527.33 1419 3556.83 1414 3590.5 1404C3624.17 1394 3653.67 1377.33 3679 1354C3704.33 1330.67 3717 1299.33 3717 1260V1193H3537C3419 1193 3360 1231.33 3360 1308C3360 1342.67 3373.33 1369.83 3400 1389.5C3426.67 1409.17 3460.67 1419 3502 1419Z" fill="#D97757" stroke="#D97757" stroke-width="90" stroke-miterlimit="10"/>
<path d="M4764 1652C4657.33 1652 4560.17 1627.5 4472.5 1578.5C4384.83 1529.5 4315 1463.17 4263 1379.5C4211 1295.83 4185 1202 4185 1098C4185 1020.67 4199.67 948.667 4229 882C4258.33 815.333 4299.17 757 4351.5 707C4403.83 657 4464.33 618 4533 590C4601.67 562 4675 548 4753 548C4813.67 548 4872.83 556.833 4930.5 574.5C4988.17 592.167 5040 616.333 5086 647L4970 901C4942.67 875.667 4911.33 856 4876 842C4840.67 828 4802.33 821 4761 821C4675 821 4607.67 848.333 4559 903C4510.33 957.667 4486 1022.33 4486 1097C4486 1149.67 4497.83 1197.33 4521.5 1240C4545.17 1282.67 4577.5 1316.5 4618.5 1341.5C4659.5 1366.5 4706.33 1379 4759 1379C4803 1379 4845 1371.33 4885 1356C4925 1340.67 4954.67 1324 4974 1306L5087 1565C5049 1588.33 5002 1608.67 4946 1626C4890 1643.33 4829.33 1652 4764 1652Z" fill="#D97757" stroke="#D97757" stroke-width="90" stroke-miterlimit="10"/>
<path d="M5212 1640V100H5528V987H5556L5896 563H6269L5827 1079L6292 1640H5919L5553 1180H5528V1640H5212Z" fill="#D97757" stroke="#D97757" stroke-width="90" stroke-miterlimit="10"/>
</g>
<mask id="mask4_22_8" style="mask-type:luminance" maskUnits="userSpaceOnUse" x="0" y="1006" width="6466" height="197">
<path d="M6466 1006.6H0V1202.6H6466V1006.6Z" fill="white"/>
</mask>
<g mask="url(#mask4_22_8)">
<path d="M212 1672V132H528V1019H556L896 595H1269L827 1111L1292 1672H919L553 1212H528V1672H212Z" fill="#7A3318" stroke="#7A3318" stroke-width="90" stroke-miterlimit="10"/>
<path d="M1758 1688C1694 1688 1632.67 1677 1574 1655C1515.33 1633 1463.83 1601.83 1419.5 1561.5C1375.17 1521.17 1341.67 1474 1319 1420L1567 1311C1583.67 1341.67 1608.67 1371.17 1642 1399.5C1675.33 1427.83 1714.67 1442 1760 1442C1795.33 1442 1824.33 1433 1847 1415C1869.67 1397 1881 1376.67 1881 1354C1881 1328 1867.83 1306.83 1841.5 1290.5C1815.17 1274.17 1784.17 1260.83 1748.5 1250.5C1712.83 1240.17 1680.33 1230.67 1651 1222C1600.33 1206.67 1552.5 1185.5 1507.5 1158.5C1462.5 1131.5 1426 1097 1398 1055C1370 1013 1356 962 1356 902C1356 838.667 1372.33 782.833 1405 734.5C1437.67 686.167 1482.67 648.333 1540 621C1597.33 593.667 1662.67 580 1736 580C1827.33 580 1909.5 601 1982.5 643C2055.5 685 2107.33 740.667 2138 810L1895 915C1882.33 893.667 1863.83 873 1839.5 853C1815.17 833 1784.33 823 1747 823C1715.67 823 1689.67 831 1669 847C1648.33 863 1638 883 1638 907C1638 931 1648.33 950.5 1669 965.5C1689.67 980.5 1716 993 1748 1003C1780 1013 1813.33 1023.33 1848 1034C1874.67 1041.33 1905.67 1051.83 1941 1065.5C1976.33 1079.17 2010.83 1097.67 2044.5 1121C2078.17 1144.33 2106.17 1174.33 2128.5 1211C2150.83 1247.67 2162 1292.67 2162 1346C2162 1413.33 2143.67 1472.67 2107 1524C2070.33 1575.33 2021.33 1615.5 1960 1644.5C1898.67 1673.5 1831.33 1688 1758 1688Z" fill="#7A3318" stroke="#7A3318" stroke-width="90" stroke-miterlimit="10"/>
<path d="M2796 1688C2663.33 1688 2564.67 1651.17 2500 1577.5C2435.33 1503.83 2403 1409.33 2403 1294V858H2223V596H2403V286H2719V596H2968V858H2719V1286C2719 1332 2730.17 1365.17 2752.5 1385.5C2774.83 1405.83 2802.33 1416 2835 1416C2850.33 1416 2865.33 1414 2880 1410C2894.67 1406 2907.67 1401 2919 1395L3021 1644C2991 1658.67 2956.17 1669.67 2916.5 1677C2876.83 1684.33 2836.67 1688 2796 1688Z" fill="#7A3318" stroke="#7A3318" stroke-width="90" stroke-miterlimit="10"/>
<path d="M3454 1688C3380.67 1688 3316.5 1673.33 3261.5 1644C3206.5 1614.67 3163.67 1575.17 3133 1525.5C3102.33 1475.83 3087 1420.67 3087 1360C3087 1263.33 3125.83 1183.67 3203.5 1121C3281.17 1058.33 3390.33 1027 3531 1027H3734V973C3734 931 3718.5 897.667 3687.5 873C3656.5 848.333 3613 836 3557 836C3509 836 3456.83 843.833 3400.5 859.5C3344.17 875.167 3297.33 894.667 3260 918L3155 680C3195 656.667 3253.67 634.167 3331 612.5C3408.33 590.833 3495.33 580 3592 580C3692.67 580 3772.67 592.667 3832 618C3891.33 643.333 3935.5 676 3964.5 716C3993.5 756 4012.33 798.333 4021 843C4029.67 887.667 4034 929.667 4034 969V1293C4034 1329.67 4038.5 1357.5 4047.5 1376.5C4056.5 1395.5 4072.67 1408.67 4096 1416L4120 1424L4009 1688L3972 1676C3925.33 1660.67 3887.33 1641.83 3858 1619.5C3828.67 1597.17 3807.33 1573.67 3794 1549H3790C3762 1587 3717.83 1619.67 3657.5 1647C3597.17 1674.33 3529.33 1688 3454 1688ZM3534 1451C3559.33 1451 3588.83 1446 3622.5 1436C3656.17 1426 3685.67 1409.33 3711 1386C3736.33 1362.67 3749 1331.33 3749 1292V1225H3569C3451 1225 3392 1263.33 3392 1340C3392 1374.67 3405.33 1401.83 3432 1421.5C3458.67 1441.17 3492.67 1451 3534 1451Z" fill="#7A3318" stroke="#7A3318" stroke-width="90" stroke-miterlimit="10"/>
<path d="M4796 1684C4689.33 1684 4592.17 1659.5 4504.5 1610.5C4416.83 1561.5 4347 1495.17 4295 1411.5C4243 1327.83 4217 1234 4217 1130C4217 1052.67 4231.67 980.667 4261 914C4290.33 847.333 4331.17 789 4383.5 739C4435.83 689 4496.33 650 4565 622C4633.67 594 4707 580 4785 580C4845.67 580 4904.83 588.833 4962.5 606.5C5020.17 624.167 5072 648.333 5118 679L5002 933C4974.67 907.667 4943.33 888 4908 874C4872.67 860 4834.33 853 4793 853C4707 853 4639.67 880.333 4591 935C4542.33 989.667 4518 1054.33 4518 1129C4518 1181.67 4529.83 1229.33 4553.5 1272C4577.17 1314.67 4609.5 1348.5 4650.5 1373.5C4691.5 1398.5 4738.33 1411 4791 1411C4835 1411 4877 1403.33 4917 1388C4957 1372.67 4986.67 1356 5006 1338L5119 1597C5081 1620.33 5034 1640.67 4978 1658C4922 1675.33 4861.33 1684 4796 1684Z" fill="#7A3318" stroke="#7A3318" stroke-width="90" stroke-miterlimit="10"/>
<path d="M5244 1672V132H5560V1019H5588L5928 595H6301L5859 1111L6324 1672H5951L5585 1212H5560V1672H5244Z" fill="#7A3318" stroke="#7A3318" stroke-width="90" stroke-miterlimit="10"/>
<path d="M180 1640V100H496V987H524L864 563H1237L795 1079L1260 1640H887L521 1180H496V1640H180Z" fill="#4E1E0B" stroke="#4E1E0B" stroke-width="120" stroke-miterlimit="10"/>
<path d="M1726 1656C1662 1656 1600.67 1645 1542 1623C1483.33 1601 1431.83 1569.83 1387.5 1529.5C1343.17 1489.17 1309.67 1442 1287 1388L1535 1279C1551.67 1309.67 1576.67 1339.17 1610 1367.5C1643.33 1395.83 1682.67 1410 1728 1410C1763.33 1410 1792.33 1401 1815 1383C1837.67 1365 1849 1344.67 1849 1322C1849 1296 1835.83 1274.83 1809.5 1258.5C1783.17 1242.17 1752.17 1228.83 1716.5 1218.5C1680.83 1208.17 1648.33 1198.67 1619 1190C1568.33 1174.67 1520.5 1153.5 1475.5 1126.5C1430.5 1099.5 1394 1065 1366 1023C1338 981 1324 930 1324 870C1324 806.667 1340.33 750.833 1373 702.5C1405.67 654.167 1450.67 616.333 1508 589C1565.33 561.667 1630.67 548 1704 548C1795.33 548 1877.5 569 1950.5 611C2023.5 653 2075.33 708.667 2106 778L1863 883C1850.33 861.667 1831.83 841 1807.5 821C1783.17 801 1752.33 791 1715 791C1683.67 791 1657.67 799 1637 815C1616.33 831 1606 851 1606 875C1606 899 1616.33 918.5 1637 933.5C1657.67 948.5 1684 961 1716 971C1748 981 1781.33 991.333 1816 1002C1842.67 1009.33 1873.67 1019.83 1909 1033.5C1944.33 1047.17 1978.83 1065.67 2012.5 1089C2046.17 1112.33 2074.17 1142.33 2096.5 1179C2118.83 1215.67 2130 1260.67 2130 1314C2130 1381.33 2111.67 1440.67 2075 1492C2038.33 1543.33 1989.33 1583.5 1928 1612.5C1866.67 1641.5 1799.33 1656 1726 1656Z" fill="#4E1E0B" stroke="#4E1E0B" stroke-width="120" stroke-miterlimit="10"/>
<path d="M2764 1656C2631.33 1656 2532.67 1619.17 2468 1545.5C2403.33 1471.83 2371 1377.33 2371 1262V826H2191V564H2371V254H2687V564H2936V826H2687V1254C2687 1300 2698.17 1333.17 2720.5 1353.5C2742.83 1373.83 2770.33 1384 2803 1384C2818.33 1384 2833.33 1382 2848 1378C2862.67 1374 2875.67 1369 2887 1363L2989 1612C2959 1626.67 2924.17 1637.67 2884.5 1645C2844.83 1652.33 2804.67 1656 2764 1656Z" fill="#4E1E0B" stroke="#4E1E0B" stroke-width="120" stroke-miterlimit="10"/>
<path d="M3422 1656C3348.67 1656 3284.5 1641.33 3229.5 1612C3174.5 1582.67 3131.67 1543.17 3101 1493.5C3070.33 1443.83 3055 1388.67 3055 1328C3055 1231.33 3093.83 1151.67 3171.5 1089C3249.17 1026.33 3358.33 995 3499 995H3702V941C3702 899 3686.5 865.667 3655.5 841C3624.5 816.333 3581 804 3525 804C3477 804 3424.83 811.833 3368.5 827.5C3312.17 843.167 3265.33 862.667 3228 886L3123 648C3163 624.667 3221.67 602.167 3299 580.5C3376.33 558.833 3463.33 548 3560 548C3660.67 548 3740.67 560.667 3800 586C3859.33 611.333 3903.5 644 3932.5 684C3961.5 724 3980.33 766.333 3989 811C3997.67 855.667 4002 897.667 4002 937V1261C4002 1297.67 4006.5 1325.5 4015.5 1344.5C4024.5 1363.5 4040.67 1376.67 4064 1384L4088 1392L3977 1656L3940 1644C3893.33 1628.67 3855.33 1609.83 3826 1587.5C3796.67 1565.17 3775.33 1541.67 3762 1517H3758C3730 1555 3685.83 1587.67 3625.5 1615C3565.17 1642.33 3497.33 1656 3422 1656ZM3502 1419C3527.33 1419 3556.83 1414 3590.5 1404C3624.17 1394 3653.67 1377.33 3679 1354C3704.33 1330.67 3717 1299.33 3717 1260V1193H3537C3419 1193 3360 1231.33 3360 1308C3360 1342.67 3373.33 1369.83 3400 1389.5C3426.67 1409.17 3460.67 1419 3502 1419Z" fill="#4E1E0B" stroke="#4E1E0B" stroke-width="120" stroke-miterlimit="10"/>
<path d="M4764 1652C4657.33 1652 4560.17 1627.5 4472.5 1578.5C4384.83 1529.5 4315 1463.17 4263 1379.5C4211 1295.83 4185 1202 4185 1098C4185 1020.67 4199.67 948.667 4229 882C4258.33 815.333 4299.17 757 4351.5 707C4403.83 657 4464.33 618 4533 590C4601.67 562 4675 548 4753 548C4813.67 548 4872.83 556.833 4930.5 574.5C4988.17 592.167 5040 616.333 5086 647L4970 901C4942.67 875.667 4911.33 856 4876 842C4840.67 828 4802.33 821 4761 821C4675 821 4607.67 848.333 4559 903C4510.33 957.667 4486 1022.33 4486 1097C4486 1149.67 4497.83 1197.33 4521.5 1240C4545.17 1282.67 4577.5 1316.5 4618.5 1341.5C4659.5 1366.5 4706.33 1379 4759 1379C4803 1379 4845 1371.33 4885 1356C4925 1340.67 4954.67 1324 4974 1306L5087 1565C5049 1588.33 5002 1608.67 4946 1626C4890 1643.33 4829.33 1652 4764 1652Z" fill="#4E1E0B" stroke="#4E1E0B" stroke-width="120" stroke-miterlimit="10"/>
<path d="M5212 1640V100H5528V987H5556L5896 563H6269L5827 1079L6292 1640H5919L5553 1180H5528V1640H5212Z" fill="#4E1E0B" stroke="#4E1E0B" stroke-width="120" stroke-miterlimit="10"/>
<path d="M180 1640V100H496V987H524L864 563H1237L795 1079L1260 1640H887L521 1180H496V1640H180Z" fill="#B85632" stroke="#B85632" stroke-width="90" stroke-miterlimit="10"/>
<path d="M1726 1656C1662 1656 1600.67 1645 1542 1623C1483.33 1601 1431.83 1569.83 1387.5 1529.5C1343.17 1489.17 1309.67 1442 1287 1388L1535 1279C1551.67 1309.67 1576.67 1339.17 1610 1367.5C1643.33 1395.83 1682.67 1410 1728 1410C1763.33 1410 1792.33 1401 1815 1383C1837.67 1365 1849 1344.67 1849 1322C1849 1296 1835.83 1274.83 1809.5 1258.5C1783.17 1242.17 1752.17 1228.83 1716.5 1218.5C1680.83 1208.17 1648.33 1198.67 1619 1190C1568.33 1174.67 1520.5 1153.5 1475.5 1126.5C1430.5 1099.5 1394 1065 1366 1023C1338 981 1324 930 1324 870C1324 806.667 1340.33 750.833 1373 702.5C1405.67 654.167 1450.67 616.333 1508 589C1565.33 561.667 1630.67 548 1704 548C1795.33 548 1877.5 569 1950.5 611C2023.5 653 2075.33 708.667 2106 778L1863 883C1850.33 861.667 1831.83 841 1807.5 821C1783.17 801 1752.33 791 1715 791C1683.67 791 1657.67 799 1637 815C1616.33 831 1606 851 1606 875C1606 899 1616.33 918.5 1637 933.5C1657.67 948.5 1684 961 1716 971C1748 981 1781.33 991.333 1816 1002C1842.67 1009.33 1873.67 1019.83 1909 1033.5C1944.33 1047.17 1978.83 1065.67 2012.5 1089C2046.17 1112.33 2074.17 1142.33 2096.5 1179C2118.83 1215.67 2130 1260.67 2130 1314C2130 1381.33 2111.67 1440.67 2075 1492C2038.33 1543.33 1989.33 1583.5 1928 1612.5C1866.67 1641.5 1799.33 1656 1726 1656Z" fill="#B85632" stroke="#B85632" stroke-width="90" stroke-miterlimit="10"/>
<path d="M2764 1656C2631.33 1656 2532.67 1619.17 2468 1545.5C2403.33 1471.83 2371 1377.33 2371 1262V826H2191V564H2371V254H2687V564H2936V826H2687V1254C2687 1300 2698.17 1333.17 2720.5 1353.5C2742.83 1373.83 2770.33 1384 2803 1384C2818.33 1384 2833.33 1382 2848 1378C2862.67 1374 2875.67 1369 2887 1363L2989 1612C2959 1626.67 2924.17 1637.67 2884.5 1645C2844.83 1652.33 2804.67 1656 2764 1656Z" fill="#B85632" stroke="#B85632" stroke-width="90" stroke-miterlimit="10"/>
<path d="M3422 1656C3348.67 1656 3284.5 1641.33 3229.5 1612C3174.5 1582.67 3131.67 1543.17 3101 1493.5C3070.33 1443.83 3055 1388.67 3055 1328C3055 1231.33 3093.83 1151.67 3171.5 1089C3249.17 1026.33 3358.33 995 3499 995H3702V941C3702 899 3686.5 865.667 3655.5 841C3624.5 816.333 3581 804 3525 804C3477 804 3424.83 811.833 3368.5 827.5C3312.17 843.167 3265.33 862.667 3228 886L3123 648C3163 624.667 3221.67 602.167 3299 580.5C3376.33 558.833 3463.33 548 3560 548C3660.67 548 3740.67 560.667 3800 586C3859.33 611.333 3903.5 644 3932.5 684C3961.5 724 3980.33 766.333 3989 811C3997.67 855.667 4002 897.667 4002 937V1261C4002 1297.67 4006.5 1325.5 4015.5 1344.5C4024.5 1363.5 4040.67 1376.67 4064 1384L4088 1392L3977 1656L3940 1644C3893.33 1628.67 3855.33 1609.83 3826 1587.5C3796.67 1565.17 3775.33 1541.67 3762 1517H3758C3730 1555 3685.83 1587.67 3625.5 1615C3565.17 1642.33 3497.33 1656 3422 1656ZM3502 1419C3527.33 1419 3556.83 1414 3590.5 1404C3624.17 1394 3653.67 1377.33 3679 1354C3704.33 1330.67 3717 1299.33 3717 1260V1193H3537C3419 1193 3360 1231.33 3360 1308C3360 1342.67 3373.33 1369.83 3400 1389.5C3426.67 1409.17 3460.67 1419 3502 1419Z" fill="#B85632" stroke="#B85632" stroke-width="90" stroke-miterlimit="10"/>
<path d="M4764 1652C4657.33 1652 4560.17 1627.5 4472.5 1578.5C4384.83 1529.5 4315 1463.17 4263 1379.5C4211 1295.83 4185 1202 4185 1098C4185 1020.67 4199.67 948.667 4229 882C4258.33 815.333 4299.17 757 4351.5 707C4403.83 657 4464.33 618 4533 590C4601.67 562 4675 548 4753 548C4813.67 548 4872.83 556.833 4930.5 574.5C4988.17 592.167 5040 616.333 5086 647L4970 901C4942.67 875.667 4911.33 856 4876 842C4840.67 828 4802.33 821 4761 821C4675 821 4607.67 848.333 4559 903C4510.33 957.667 4486 1022.33 4486 1097C4486 1149.67 4497.83 1197.33 4521.5 1240C4545.17 1282.67 4577.5 1316.5 4618.5 1341.5C4659.5 1366.5 4706.33 1379 4759 1379C4803 1379 4845 1371.33 4885 1356C4925 1340.67 4954.67 1324 4974 1306L5087 1565C5049 1588.33 5002 1608.67 4946 1626C4890 1643.33 4829.33 1652 4764 1652Z" fill="#B85632" stroke="#B85632" stroke-width="90" stroke-miterlimit="10"/>
<path d="M5212 1640V100H5528V987H5556L5896 563H6269L5827 1079L6292 1640H5919L5553 1180H5528V1640H5212Z" fill="#B85632" stroke="#B85632" stroke-width="90" stroke-miterlimit="10"/>
</g>
<mask id="mask5_22_8" style="mask-type:luminance" maskUnits="userSpaceOnUse" x="0" y="1233" width="6466" height="197">
<path d="M6466 1233.3H0V1429.3H6466V1233.3Z" fill="white"/>
</mask>
<g mask="url(#mask5_22_8)">
<path d="M204 1664V124H520V1011H548L888 587H1261L819 1103L1284 1664H911L545 1204H520V1664H204Z" fill="#5F2710" stroke="#5F2710" stroke-width="90" stroke-miterlimit="10"/>
<path d="M1750 1680C1686 1680 1624.67 1669 1566 1647C1507.33 1625 1455.83 1593.83 1411.5 1553.5C1367.17 1513.17 1333.67 1466 1311 1412L1559 1303C1575.67 1333.67 1600.67 1363.17 1634 1391.5C1667.33 1419.83 1706.67 1434 1752 1434C1787.33 1434 1816.33 1425 1839 1407C1861.67 1389 1873 1368.67 1873 1346C1873 1320 1859.83 1298.83 1833.5 1282.5C1807.17 1266.17 1776.17 1252.83 1740.5 1242.5C1704.83 1232.17 1672.33 1222.67 1643 1214C1592.33 1198.67 1544.5 1177.5 1499.5 1150.5C1454.5 1123.5 1418 1089 1390 1047C1362 1005 1348 954 1348 894C1348 830.667 1364.33 774.833 1397 726.5C1429.67 678.167 1474.67 640.333 1532 613C1589.33 585.667 1654.67 572 1728 572C1819.33 572 1901.5 593 1974.5 635C2047.5 677 2099.33 732.667 2130 802L1887 907C1874.33 885.667 1855.83 865 1831.5 845C1807.17 825 1776.33 815 1739 815C1707.67 815 1681.67 823 1661 839C1640.33 855 1630 875 1630 899C1630 923 1640.33 942.5 1661 957.5C1681.67 972.5 1708 985 1740 995C1772 1005 1805.33 1015.33 1840 1026C1866.67 1033.33 1897.67 1043.83 1933 1057.5C1968.33 1071.17 2002.83 1089.67 2036.5 1113C2070.17 1136.33 2098.17 1166.33 2120.5 1203C2142.83 1239.67 2154 1284.67 2154 1338C2154 1405.33 2135.67 1464.67 2099 1516C2062.33 1567.33 2013.33 1607.5 1952 1636.5C1890.67 1665.5 1823.33 1680 1750 1680Z" fill="#5F2710" stroke="#5F2710" stroke-width="90" stroke-miterlimit="10"/>
<path d="M2788 1680C2655.33 1680 2556.67 1643.17 2492 1569.5C2427.33 1495.83 2395 1401.33 2395 1286V850H2215V588H2395V278H2711V588H2960V850H2711V1278C2711 1324 2722.17 1357.17 2744.5 1377.5C2766.83 1397.83 2794.33 1408 2827 1408C2842.33 1408 2857.33 1406 2872 1402C2886.67 1398 2899.67 1393 2911 1387L3013 1636C2983 1650.67 2948.17 1661.67 2908.5 1669C2868.83 1676.33 2828.67 1680 2788 1680Z" fill="#5F2710" stroke="#5F2710" stroke-width="90" stroke-miterlimit="10"/>
<path d="M3446 1680C3372.67 1680 3308.5 1665.33 3253.5 1636C3198.5 1606.67 3155.67 1567.17 3125 1517.5C3094.33 1467.83 3079 1412.67 3079 1352C3079 1255.33 3117.83 1175.67 3195.5 1113C3273.17 1050.33 3382.33 1019 3523 1019H3726V965C3726 923 3710.5 889.667 3679.5 865C3648.5 840.333 3605 828 3549 828C3501 828 3448.83 835.833 3392.5 851.5C3336.17 867.167 3289.33 886.667 3252 910L3147 672C3187 648.667 3245.67 626.167 3323 604.5C3400.33 582.833 3487.33 572 3584 572C3684.67 572 3764.67 584.667 3824 610C3883.33 635.333 3927.5 668 3956.5 708C3985.5 748 4004.33 790.333 4013 835C4021.67 879.667 4026 921.667 4026 961V1285C4026 1321.67 4030.5 1349.5 4039.5 1368.5C4048.5 1387.5 4064.67 1400.67 4088 1408L4112 1416L4001 1680L3964 1668C3917.33 1652.67 3879.33 1633.83 3850 1611.5C3820.67 1589.17 3799.33 1565.67 3786 1541H3782C3754 1579 3709.83 1611.67 3649.5 1639C3589.17 1666.33 3521.33 1680 3446 1680ZM3526 1443C3551.33 1443 3580.83 1438 3614.5 1428C3648.17 1418 3677.67 1401.33 3703 1378C3728.33 1354.67 3741 1323.33 3741 1284V1217H3561C3443 1217 3384 1255.33 3384 1332C3384 1366.67 3397.33 1393.83 3424 1413.5C3450.67 1433.17 3484.67 1443 3526 1443Z" fill="#5F2710" stroke="#5F2710" stroke-width="90" stroke-miterlimit="10"/>
<path d="M4788 1676C4681.33 1676 4584.17 1651.5 4496.5 1602.5C4408.83 1553.5 4339 1487.17 4287 1403.5C4235 1319.83 4209 1226 4209 1122C4209 1044.67 4223.67 972.667 4253 906C4282.33 839.333 4323.17 781 4375.5 731C4427.83 681 4488.33 642 4557 614C4625.67 586 4699 572 4777 572C4837.67 572 4896.83 580.833 4954.5 598.5C5012.17 616.167 5064 640.333 5110 671L4994 925C4966.67 899.667 4935.33 880 4900 866C4864.67 852 4826.33 845 4785 845C4699 845 4631.67 872.333 4583 927C4534.33 981.667 4510 1046.33 4510 1121C4510 1173.67 4521.83 1221.33 4545.5 1264C4569.17 1306.67 4601.5 1340.5 4642.5 1365.5C4683.5 1390.5 4730.33 1403 4783 1403C4827 1403 4869 1395.33 4909 1380C4949 1364.67 4978.67 1348 4998 1330L5111 1589C5073 1612.33 5026 1632.67 4970 1650C4914 1667.33 4853.33 1676 4788 1676Z" fill="#5F2710" stroke="#5F2710" stroke-width="90" stroke-miterlimit="10"/>
<path d="M5236 1664V124H5552V1011H5580L5920 587H6293L5851 1103L6316 1664H5943L5577 1204H5552V1664H5236Z" fill="#5F2710" stroke="#5F2710" stroke-width="90" stroke-miterlimit="10"/>
<path d="M180 1640V100H496V987H524L864 563H1237L795 1079L1260 1640H887L521 1180H496V1640H180Z" fill="#4E1E0B" stroke="#4E1E0B" stroke-width="120" stroke-miterlimit="10"/>
<path d="M1726 1656C1662 1656 1600.67 1645 1542 1623C1483.33 1601 1431.83 1569.83 1387.5 1529.5C1343.17 1489.17 1309.67 1442 1287 1388L1535 1279C1551.67 1309.67 1576.67 1339.17 1610 1367.5C1643.33 1395.83 1682.67 1410 1728 1410C1763.33 1410 1792.33 1401 1815 1383C1837.67 1365 1849 1344.67 1849 1322C1849 1296 1835.83 1274.83 1809.5 1258.5C1783.17 1242.17 1752.17 1228.83 1716.5 1218.5C1680.83 1208.17 1648.33 1198.67 1619 1190C1568.33 1174.67 1520.5 1153.5 1475.5 1126.5C1430.5 1099.5 1394 1065 1366 1023C1338 981 1324 930 1324 870C1324 806.667 1340.33 750.833 1373 702.5C1405.67 654.167 1450.67 616.333 1508 589C1565.33 561.667 1630.67 548 1704 548C1795.33 548 1877.5 569 1950.5 611C2023.5 653 2075.33 708.667 2106 778L1863 883C1850.33 861.667 1831.83 841 1807.5 821C1783.17 801 1752.33 791 1715 791C1683.67 791 1657.67 799 1637 815C1616.33 831 1606 851 1606 875C1606 899 1616.33 918.5 1637 933.5C1657.67 948.5 1684 961 1716 971C1748 981 1781.33 991.333 1816 1002C1842.67 1009.33 1873.67 1019.83 1909 1033.5C1944.33 1047.17 1978.83 1065.67 2012.5 1089C2046.17 1112.33 2074.17 1142.33 2096.5 1179C2118.83 1215.67 2130 1260.67 2130 1314C2130 1381.33 2111.67 1440.67 2075 1492C2038.33 1543.33 1989.33 1583.5 1928 1612.5C1866.67 1641.5 1799.33 1656 1726 1656Z" fill="#4E1E0B" stroke="#4E1E0B" stroke-width="120" stroke-miterlimit="10"/>
<path d="M2764 1656C2631.33 1656 2532.67 1619.17 2468 1545.5C2403.33 1471.83 2371 1377.33 2371 1262V826H2191V564H2371V254H2687V564H2936V826H2687V1254C2687 1300 2698.17 1333.17 2720.5 1353.5C2742.83 1373.83 2770.33 1384 2803 1384C2818.33 1384 2833.33 1382 2848 1378C2862.67 1374 2875.67 1369 2887 1363L2989 1612C2959 1626.67 2924.17 1637.67 2884.5 1645C2844.83 1652.33 2804.67 1656 2764 1656Z" fill="#4E1E0B" stroke="#4E1E0B" stroke-width="120" stroke-miterlimit="10"/>
<path d="M3422 1656C3348.67 1656 3284.5 1641.33 3229.5 1612C3174.5 1582.67 3131.67 1543.17 3101 1493.5C3070.33 1443.83 3055 1388.67 3055 1328C3055 1231.33 3093.83 1151.67 3171.5 1089C3249.17 1026.33 3358.33 995 3499 995H3702V941C3702 899 3686.5 865.667 3655.5 841C3624.5 816.333 3581 804 3525 804C3477 804 3424.83 811.833 3368.5 827.5C3312.17 843.167 3265.33 862.667 3228 886L3123 648C3163 624.667 3221.67 602.167 3299 580.5C3376.33 558.833 3463.33 548 3560 548C3660.67 548 3740.67 560.667 3800 586C3859.33 611.333 3903.5 644 3932.5 684C3961.5 724 3980.33 766.333 3989 811C3997.67 855.667 4002 897.667 4002 937V1261C4002 1297.67 4006.5 1325.5 4015.5 1344.5C4024.5 1363.5 4040.67 1376.67 4064 1384L4088 1392L3977 1656L3940 1644C3893.33 1628.67 3855.33 1609.83 3826 1587.5C3796.67 1565.17 3775.33 1541.67 3762 1517H3758C3730 1555 3685.83 1587.67 3625.5 1615C3565.17 1642.33 3497.33 1656 3422 1656ZM3502 1419C3527.33 1419 3556.83 1414 3590.5 1404C3624.17 1394 3653.67 1377.33 3679 1354C3704.33 1330.67 3717 1299.33 3717 1260V1193H3537C3419 1193 3360 1231.33 3360 1308C3360 1342.67 3373.33 1369.83 3400 1389.5C3426.67 1409.17 3460.67 1419 3502 1419Z" fill="#4E1E0B" stroke="#4E1E0B" stroke-width="120" stroke-miterlimit="10"/>
<path d="M4764 1652C4657.33 1652 4560.17 1627.5 4472.5 1578.5C4384.83 1529.5 4315 1463.17 4263 1379.5C4211 1295.83 4185 1202 4185 1098C4185 1020.67 4199.67 948.667 4229 882C4258.33 815.333 4299.17 757 4351.5 707C4403.83 657 4464.33 618 4533 590C4601.67 562 4675 548 4753 548C4813.67 548 4872.83 556.833 4930.5 574.5C4988.17 592.167 5040 616.333 5086 647L4970 901C4942.67 875.667 4911.33 856 4876 842C4840.67 828 4802.33 821 4761 821C4675 821 4607.67 848.333 4559 903C4510.33 957.667 4486 1022.33 4486 1097C4486 1149.67 4497.83 1197.33 4521.5 1240C4545.17 1282.67 4577.5 1316.5 4618.5 1341.5C4659.5 1366.5 4706.33 1379 4759 1379C4803 1379 4845 1371.33 4885 1356C4925 1340.67 4954.67 1324 4974 1306L5087 1565C5049 1588.33 5002 1608.67 4946 1626C4890 1643.33 4829.33 1652 4764 1652Z" fill="#4E1E0B" stroke="#4E1E0B" stroke-width="120" stroke-miterlimit="10"/>
<path d="M5212 1640V100H5528V987H5556L5896 563H6269L5827 1079L6292 1640H5919L5553 1180H5528V1640H5212Z" fill="#4E1E0B" stroke="#4E1E0B" stroke-width="120" stroke-miterlimit="10"/>
<path d="M180 1640V100H496V987H524L864 563H1237L795 1079L1260 1640H887L521 1180H496V1640H180Z" fill="#8A3C1D" stroke="#8A3C1D" stroke-width="90" stroke-miterlimit="10"/>
<path d="M1726 1656C1662 1656 1600.67 1645 1542 1623C1483.33 1601 1431.83 1569.83 1387.5 1529.5C1343.17 1489.17 1309.67 1442 1287 1388L1535 1279C1551.67 1309.67 1576.67 1339.17 1610 1367.5C1643.33 1395.83 1682.67 1410 1728 1410C1763.33 1410 1792.33 1401 1815 1383C1837.67 1365 1849 1344.67 1849 1322C1849 1296 1835.83 1274.83 1809.5 1258.5C1783.17 1242.17 1752.17 1228.83 1716.5 1218.5C1680.83 1208.17 1648.33 1198.67 1619 1190C1568.33 1174.67 1520.5 1153.5 1475.5 1126.5C1430.5 1099.5 1394 1065 1366 1023C1338 981 1324 930 1324 870C1324 806.667 1340.33 750.833 1373 702.5C1405.67 654.167 1450.67 616.333 1508 589C1565.33 561.667 1630.67 548 1704 548C1795.33 548 1877.5 569 1950.5 611C2023.5 653 2075.33 708.667 2106 778L1863 883C1850.33 861.667 1831.83 841 1807.5 821C1783.17 801 1752.33 791 1715 791C1683.67 791 1657.67 799 1637 815C1616.33 831 1606 851 1606 875C1606 899 1616.33 918.5 1637 933.5C1657.67 948.5 1684 961 1716 971C1748 981 1781.33 991.333 1816 1002C1842.67 1009.33 1873.67 1019.83 1909 1033.5C1944.33 1047.17 1978.83 1065.67 2012.5 1089C2046.17 1112.33 2074.17 1142.33 2096.5 1179C2118.83 1215.67 2130 1260.67 2130 1314C2130 1381.33 2111.67 1440.67 2075 1492C2038.33 1543.33 1989.33 1583.5 1928 1612.5C1866.67 1641.5 1799.33 1656 1726 1656Z" fill="#8A3C1D" stroke="#8A3C1D" stroke-width="90" stroke-miterlimit="10"/>
<path d="M2764 1656C2631.33 1656 2532.67 1619.17 2468 1545.5C2403.33 1471.83 2371 1377.33 2371 1262V826H2191V564H2371V254H2687V564H2936V826H2687V1254C2687 1300 2698.17 1333.17 2720.5 1353.5C2742.83 1373.83 2770.33 1384 2803 1384C2818.33 1384 2833.33 1382 2848 1378C2862.67 1374 2875.67 1369 2887 1363L2989 1612C2959 1626.67 2924.17 1637.67 2884.5 1645C2844.83 1652.33 2804.67 1656 2764 1656Z" fill="#8A3C1D" stroke="#8A3C1D" stroke-width="90" stroke-miterlimit="10"/>
<path d="M3422 1656C3348.67 1656 3284.5 1641.33 3229.5 1612C3174.5 1582.67 3131.67 1543.17 3101 1493.5C3070.33 1443.83 3055 1388.67 3055 1328C3055 1231.33 3093.83 1151.67 3171.5 1089C3249.17 1026.33 3358.33 995 3499 995H3702V941C3702 899 3686.5 865.667 3655.5 841C3624.5 816.333 3581 804 3525 804C3477 804 3424.83 811.833 3368.5 827.5C3312.17 843.167 3265.33 862.667 3228 886L3123 648C3163 624.667 3221.67 602.167 3299 580.5C3376.33 558.833 3463.33 548 3560 548C3660.67 548 3740.67 560.667 3800 586C3859.33 611.333 3903.5 644 3932.5 684C3961.5 724 3980.33 766.333 3989 811C3997.67 855.667 4002 897.667 4002 937V1261C4002 1297.67 4006.5 1325.5 4015.5 1344.5C4024.5 1363.5 4040.67 1376.67 4064 1384L4088 1392L3977 1656L3940 1644C3893.33 1628.67 3855.33 1609.83 3826 1587.5C3796.67 1565.17 3775.33 1541.67 3762 1517H3758C3730 1555 3685.83 1587.67 3625.5 1615C3565.17 1642.33 3497.33 1656 3422 1656ZM3502 1419C3527.33 1419 3556.83 1414 3590.5 1404C3624.17 1394 3653.67 1377.33 3679 1354C3704.33 1330.67 3717 1299.33 3717 1260V1193H3537C3419 1193 3360 1231.33 3360 1308C3360 1342.67 3373.33 1369.83 3400 1389.5C3426.67 1409.17 3460.67 1419 3502 1419Z" fill="#8A3C1D" stroke="#8A3C1D" stroke-width="90" stroke-miterlimit="10"/>
<path d="M4764 1652C4657.33 1652 4560.17 1627.5 4472.5 1578.5C4384.83 1529.5 4315 1463.17 4263 1379.5C4211 1295.83 4185 1202 4185 1098C4185 1020.67 4199.67 948.667 4229 882C4258.33 815.333 4299.17 757 4351.5 707C4403.83 657 4464.33 618 4533 590C4601.67 562 4675 548 4753 548C4813.67 548 4872.83 556.833 4930.5 574.5C4988.17 592.167 5040 616.333 5086 647L4970 901C4942.67 875.667 4911.33 856 4876 842C4840.67 828 4802.33 821 4761 821C4675 821 4607.67 848.333 4559 903C4510.33 957.667 4486 1022.33 4486 1097C4486 1149.67 4497.83 1197.33 4521.5 1240C4545.17 1282.67 4577.5 1316.5 4618.5 1341.5C4659.5 1366.5 4706.33 1379 4759 1379C4803 1379 4845 1371.33 4885 1356C4925 1340.67 4954.67 1324 4974 1306L5087 1565C5049 1588.33 5002 1608.67 4946 1626C4890 1643.33 4829.33 1652 4764 1652Z" fill="#8A3C1D" stroke="#8A3C1D" stroke-width="90" stroke-miterlimit="10"/>
<path d="M5212 1640V100H5528V987H5556L5896 563H6269L5827 1079L6292 1640H5919L5553 1180H5528V1640H5212Z" fill="#8A3C1D" stroke="#8A3C1D" stroke-width="90" stroke-miterlimit="10"/>
</g>
<mask id="mask6_22_8" style="mask-type:luminance" maskUnits="userSpaceOnUse" x="0" y="1460" width="6466" height="196">
<path d="M6466 1460H0V1656H6466V1460Z" fill="white"/>
</mask>
<g mask="url(#mask6_22_8)">
<path d="M196 1656V116H512V1003H540L880 579H1253L811 1095L1276 1656H903L537 1196H512V1656H196Z" fill="#3D1708" stroke="#3D1708" stroke-width="90" stroke-miterlimit="10"/>
<path d="M1742 1672C1678 1672 1616.67 1661 1558 1639C1499.33 1617 1447.83 1585.83 1403.5 1545.5C1359.17 1505.17 1325.67 1458 1303 1404L1551 1295C1567.67 1325.67 1592.67 1355.17 1626 1383.5C1659.33 1411.83 1698.67 1426 1744 1426C1779.33 1426 1808.33 1417 1831 1399C1853.67 1381 1865 1360.67 1865 1338C1865 1312 1851.83 1290.83 1825.5 1274.5C1799.17 1258.17 1768.17 1244.83 1732.5 1234.5C1696.83 1224.17 1664.33 1214.67 1635 1206C1584.33 1190.67 1536.5 1169.5 1491.5 1142.5C1446.5 1115.5 1410 1081 1382 1039C1354 997 1340 946 1340 886C1340 822.667 1356.33 766.833 1389 718.5C1421.67 670.167 1466.67 632.333 1524 605C1581.33 577.667 1646.67 564 1720 564C1811.33 564 1893.5 585 1966.5 627C2039.5 669 2091.33 724.667 2122 794L1879 899C1866.33 877.667 1847.83 857 1823.5 837C1799.17 817 1768.33 807 1731 807C1699.67 807 1673.67 815 1653 831C1632.33 847 1622 867 1622 891C1622 915 1632.33 934.5 1653 949.5C1673.67 964.5 1700 977 1732 987C1764 997 1797.33 1007.33 1832 1018C1858.67 1025.33 1889.67 1035.83 1925 1049.5C1960.33 1063.17 1994.83 1081.67 2028.5 1105C2062.17 1128.33 2090.17 1158.33 2112.5 1195C2134.83 1231.67 2146 1276.67 2146 1330C2146 1397.33 2127.67 1456.67 2091 1508C2054.33 1559.33 2005.33 1599.5 1944 1628.5C1882.67 1657.5 1815.33 1672 1742 1672Z" fill="#3D1708" stroke="#3D1708" stroke-width="90" stroke-miterlimit="10"/>
<path d="M2780 1672C2647.33 1672 2548.67 1635.17 2484 1561.5C2419.33 1487.83 2387 1393.33 2387 1278V842H2207V580H2387V270H2703V580H2952V842H2703V1270C2703 1316 2714.17 1349.17 2736.5 1369.5C2758.83 1389.83 2786.33 1400 2819 1400C2834.33 1400 2849.33 1398 2864 1394C2878.67 1390 2891.67 1385 2903 1379L3005 1628C2975 1642.67 2940.17 1653.67 2900.5 1661C2860.83 1668.33 2820.67 1672 2780 1672Z" fill="#3D1708" stroke="#3D1708" stroke-width="90" stroke-miterlimit="10"/>
<path d="M3438 1672C3364.67 1672 3300.5 1657.33 3245.5 1628C3190.5 1598.67 3147.67 1559.17 3117 1509.5C3086.33 1459.83 3071 1404.67 3071 1344C3071 1247.33 3109.83 1167.67 3187.5 1105C3265.17 1042.33 3374.33 1011 3515 1011H3718V957C3718 915 3702.5 881.667 3671.5 857C3640.5 832.333 3597 820 3541 820C3493 820 3440.83 827.833 3384.5 843.5C3328.17 859.167 3281.33 878.667 3244 902L3139 664C3179 640.667 3237.67 618.167 3315 596.5C3392.33 574.833 3479.33 564 3576 564C3676.67 564 3756.67 576.667 3816 602C3875.33 627.333 3919.5 660 3948.5 700C3977.5 740 3996.33 782.333 4005 827C4013.67 871.667 4018 913.667 4018 953V1277C4018 1313.67 4022.5 1341.5 4031.5 1360.5C4040.5 1379.5 4056.67 1392.67 4080 1400L4104 1408L3993 1672L3956 1660C3909.33 1644.67 3871.33 1625.83 3842 1603.5C3812.67 1581.17 3791.33 1557.67 3778 1533H3774C3746 1571 3701.83 1603.67 3641.5 1631C3581.17 1658.33 3513.33 1672 3438 1672ZM3518 1435C3543.33 1435 3572.83 1430 3606.5 1420C3640.17 1410 3669.67 1393.33 3695 1370C3720.33 1346.67 3733 1315.33 3733 1276V1209H3553C3435 1209 3376 1247.33 3376 1324C3376 1358.67 3389.33 1385.83 3416 1405.5C3442.67 1425.17 3476.67 1435 3518 1435Z" fill="#3D1708" stroke="#3D1708" stroke-width="90" stroke-miterlimit="10"/>
<path d="M4780 1668C4673.33 1668 4576.17 1643.5 4488.5 1594.5C4400.83 1545.5 4331 1479.17 4279 1395.5C4227 1311.83 4201 1218 4201 1114C4201 1036.67 4215.67 964.667 4245 898C4274.33 831.333 4315.17 773 4367.5 723C4419.83 673 4480.33 634 4549 606C4617.67 578 4691 564 4769 564C4829.67 564 4888.83 572.833 4946.5 590.5C5004.17 608.167 5056 632.333 5102 663L4986 917C4958.67 891.667 4927.33 872 4892 858C4856.67 844 4818.33 837 4777 837C4691 837 4623.67 864.333 4575 919C4526.33 973.667 4502 1038.33 4502 1113C4502 1165.67 4513.83 1213.33 4537.5 1256C4561.17 1298.67 4593.5 1332.5 4634.5 1357.5C4675.5 1382.5 4722.33 1395 4775 1395C4819 1395 4861 1387.33 4901 1372C4941 1356.67 4970.67 1340 4990 1322L5103 1581C5065 1604.33 5018 1624.67 4962 1642C4906 1659.33 4845.33 1668 4780 1668Z" fill="#3D1708" stroke="#3D1708" stroke-width="90" stroke-miterlimit="10"/>
<path d="M5228 1656V116H5544V1003H5572L5912 579H6285L5843 1095L6308 1656H5935L5569 1196H5544V1656H5228Z" fill="#3D1708" stroke="#3D1708" stroke-width="90" stroke-miterlimit="10"/>
<path d="M180 1640V100H496V987H524L864 563H1237L795 1079L1260 1640H887L521 1180H496V1640H180Z" fill="#2B0F06" stroke="#2B0F06" stroke-width="120" stroke-miterlimit="10"/>
<path d="M1726 1656C1662 1656 1600.67 1645 1542 1623C1483.33 1601 1431.83 1569.83 1387.5 1529.5C1343.17 1489.17 1309.67 1442 1287 1388L1535 1279C1551.67 1309.67 1576.67 1339.17 1610 1367.5C1643.33 1395.83 1682.67 1410 1728 1410C1763.33 1410 1792.33 1401 1815 1383C1837.67 1365 1849 1344.67 1849 1322C1849 1296 1835.83 1274.83 1809.5 1258.5C1783.17 1242.17 1752.17 1228.83 1716.5 1218.5C1680.83 1208.17 1648.33 1198.67 1619 1190C1568.33 1174.67 1520.5 1153.5 1475.5 1126.5C1430.5 1099.5 1394 1065 1366 1023C1338 981 1324 930 1324 870C1324 806.667 1340.33 750.833 1373 702.5C1405.67 654.167 1450.67 616.333 1508 589C1565.33 561.667 1630.67 548 1704 548C1795.33 548 1877.5 569 1950.5 611C2023.5 653 2075.33 708.667 2106 778L1863 883C1850.33 861.667 1831.83 841 1807.5 821C1783.17 801 1752.33 791 1715 791C1683.67 791 1657.67 799 1637 815C1616.33 831 1606 851 1606 875C1606 899 1616.33 918.5 1637 933.5C1657.67 948.5 1684 961 1716 971C1748 981 1781.33 991.333 1816 1002C1842.67 1009.33 1873.67 1019.83 1909 1033.5C1944.33 1047.17 1978.83 1065.67 2012.5 1089C2046.17 1112.33 2074.17 1142.33 2096.5 1179C2118.83 1215.67 2130 1260.67 2130 1314C2130 1381.33 2111.67 1440.67 2075 1492C2038.33 1543.33 1989.33 1583.5 1928 1612.5C1866.67 1641.5 1799.33 1656 1726 1656Z" fill="#2B0F06" stroke="#2B0F06" stroke-width="120" stroke-miterlimit="10"/>
<path d="M2764 1656C2631.33 1656 2532.67 1619.17 2468 1545.5C2403.33 1471.83 2371 1377.33 2371 1262V826H2191V564H2371V254H2687V564H2936V826H2687V1254C2687 1300 2698.17 1333.17 2720.5 1353.5C2742.83 1373.83 2770.33 1384 2803 1384C2818.33 1384 2833.33 1382 2848 1378C2862.67 1374 2875.67 1369 2887 1363L2989 1612C2959 1626.67 2924.17 1637.67 2884.5 1645C2844.83 1652.33 2804.67 1656 2764 1656Z" fill="#2B0F06" stroke="#2B0F06" stroke-width="120" stroke-miterlimit="10"/>
<path d="M3422 1656C3348.67 1656 3284.5 1641.33 3229.5 1612C3174.5 1582.67 3131.67 1543.17 3101 1493.5C3070.33 1443.83 3055 1388.67 3055 1328C3055 1231.33 3093.83 1151.67 3171.5 1089C3249.17 1026.33 3358.33 995 3499 995H3702V941C3702 899 3686.5 865.667 3655.5 841C3624.5 816.333 3581 804 3525 804C3477 804 3424.83 811.833 3368.5 827.5C3312.17 843.167 3265.33 862.667 3228 886L3123 648C3163 624.667 3221.67 602.167 3299 580.5C3376.33 558.833 3463.33 548 3560 548C3660.67 548 3740.67 560.667 3800 586C3859.33 611.333 3903.5 644 3932.5 684C3961.5 724 3980.33 766.333 3989 811C3997.67 855.667 4002 897.667 4002 937V1261C4002 1297.67 4006.5 1325.5 4015.5 1344.5C4024.5 1363.5 4040.67 1376.67 4064 1384L4088 1392L3977 1656L3940 1644C3893.33 1628.67 3855.33 1609.83 3826 1587.5C3796.67 1565.17 3775.33 1541.67 3762 1517H3758C3730 1555 3685.83 1587.67 3625.5 1615C3565.17 1642.33 3497.33 1656 3422 1656ZM3502 1419C3527.33 1419 3556.83 1414 3590.5 1404C3624.17 1394 3653.67 1377.33 3679 1354C3704.33 1330.67 3717 1299.33 3717 1260V1193H3537C3419 1193 3360 1231.33 3360 1308C3360 1342.67 3373.33 1369.83 3400 1389.5C3426.67 1409.17 3460.67 1419 3502 1419Z" fill="#2B0F06" stroke="#2B0F06" stroke-width="120" stroke-miterlimit="10"/>
<path d="M4764 1652C4657.33 1652 4560.17 1627.5 4472.5 1578.5C4384.83 1529.5 4315 1463.17 4263 1379.5C4211 1295.83 4185 1202 4185 1098C4185 1020.67 4199.67 948.667 4229 882C4258.33 815.333 4299.17 757 4351.5 707C4403.83 657 4464.33 618 4533 590C4601.67 562 4675 548 4753 548C4813.67 548 4872.83 556.833 4930.5 574.5C4988.17 592.167 5040 616.333 5086 647L4970 901C4942.67 875.667 4911.33 856 4876 842C4840.67 828 4802.33 821 4761 821C4675 821 4607.67 848.333 4559 903C4510.33 957.667 4486 1022.33 4486 1097C4486 1149.67 4497.83 1197.33 4521.5 1240C4545.17 1282.67 4577.5 1316.5 4618.5 1341.5C4659.5 1366.5 4706.33 1379 4759 1379C4803 1379 4845 1371.33 4885 1356C4925 1340.67 4954.67 1324 4974 1306L5087 1565C5049 1588.33 5002 1608.67 4946 1626C4890 1643.33 4829.33 1652 4764 1652Z" fill="#2B0F06" stroke="#2B0F06" stroke-width="120" stroke-miterlimit="10"/>
<path d="M5212 1640V100H5528V987H5556L5896 563H6269L5827 1079L6292 1640H5919L5553 1180H5528V1640H5212Z" fill="#2B0F06" stroke="#2B0F06" stroke-width="120" stroke-miterlimit="10"/>
<path d="M180 1640V100H496V987H524L864 563H1237L795 1079L1260 1640H887L521 1180H496V1640H180Z" fill="#5F2710" stroke="#5F2710" stroke-width="90" stroke-miterlimit="10"/>
<path d="M1726 1656C1662 1656 1600.67 1645 1542 1623C1483.33 1601 1431.83 1569.83 1387.5 1529.5C1343.17 1489.17 1309.67 1442 1287 1388L1535 1279C1551.67 1309.67 1576.67 1339.17 1610 1367.5C1643.33 1395.83 1682.67 1410 1728 1410C1763.33 1410 1792.33 1401 1815 1383C1837.67 1365 1849 1344.67 1849 1322C1849 1296 1835.83 1274.83 1809.5 1258.5C1783.17 1242.17 1752.17 1228.83 1716.5 1218.5C1680.83 1208.17 1648.33 1198.67 1619 1190C1568.33 1174.67 1520.5 1153.5 1475.5 1126.5C1430.5 1099.5 1394 1065 1366 1023C1338 981 1324 930 1324 870C1324 806.667 1340.33 750.833 1373 702.5C1405.67 654.167 1450.67 616.333 1508 589C1565.33 561.667 1630.67 548 1704 548C1795.33 548 1877.5 569 1950.5 611C2023.5 653 2075.33 708.667 2106 778L1863 883C1850.33 861.667 1831.83 841 1807.5 821C1783.17 801 1752.33 791 1715 791C1683.67 791 1657.67 799 1637 815C1616.33 831 1606 851 1606 875C1606 899 1616.33 918.5 1637 933.5C1657.67 948.5 1684 961 1716 971C1748 981 1781.33 991.333 1816 1002C1842.67 1009.33 1873.67 1019.83 1909 1033.5C1944.33 1047.17 1978.83 1065.67 2012.5 1089C2046.17 1112.33 2074.17 1142.33 2096.5 1179C2118.83 1215.67 2130 1260.67 2130 1314C2130 1381.33 2111.67 1440.67 2075 1492C2038.33 1543.33 1989.33 1583.5 1928 1612.5C1866.67 1641.5 1799.33 1656 1726 1656Z" fill="#5F2710" stroke="#5F2710" stroke-width="90" stroke-miterlimit="10"/>
<path d="M2764 1656C2631.33 1656 2532.67 1619.17 2468 1545.5C2403.33 1471.83 2371 1377.33 2371 1262V826H2191V564H2371V254H2687V564H2936V826H2687V1254C2687 1300 2698.17 1333.17 2720.5 1353.5C2742.83 1373.83 2770.33 1384 2803 1384C2818.33 1384 2833.33 1382 2848 1378C2862.67 1374 2875.67 1369 2887 1363L2989 1612C2959 1626.67 2924.17 1637.67 2884.5 1645C2844.83 1652.33 2804.67 1656 2764 1656Z" fill="#5F2710" stroke="#5F2710" stroke-width="90" stroke-miterlimit="10"/>
<path d="M3422 1656C3348.67 1656 3284.5 1641.33 3229.5 1612C3174.5 1582.67 3131.67 1543.17 3101 1493.5C3070.33 1443.83 3055 1388.67 3055 1328C3055 1231.33 3093.83 1151.67 3171.5 1089C3249.17 1026.33 3358.33 995 3499 995H3702V941C3702 899 3686.5 865.667 3655.5 841C3624.5 816.333 3581 804 3525 804C3477 804 3424.83 811.833 3368.5 827.5C3312.17 843.167 3265.33 862.667 3228 886L3123 648C3163 624.667 3221.67 602.167 3299 580.5C3376.33 558.833 3463.33 548 3560 548C3660.67 548 3740.67 560.667 3800 586C3859.33 611.333 3903.5 644 3932.5 684C3961.5 724 3980.33 766.333 3989 811C3997.67 855.667 4002 897.667 4002 937V1261C4002 1297.67 4006.5 1325.5 4015.5 1344.5C4024.5 1363.5 4040.67 1376.67 4064 1384L4088 1392L3977 1656L3940 1644C3893.33 1628.67 3855.33 1609.83 3826 1587.5C3796.67 1565.17 3775.33 1541.67 3762 1517H3758C3730 1555 3685.83 1587.67 3625.5 1615C3565.17 1642.33 3497.33 1656 3422 1656ZM3502 1419C3527.33 1419 3556.83 1414 3590.5 1404C3624.17 1394 3653.67 1377.33 3679 1354C3704.33 1330.67 3717 1299.33 3717 1260V1193H3537C3419 1193 3360 1231.33 3360 1308C3360 1342.67 3373.33 1369.83 3400 1389.5C3426.67 1409.17 3460.67 1419 3502 1419Z" fill="#5F2710" stroke="#5F2710" stroke-width="90" stroke-miterlimit="10"/>
<path d="M4764 1652C4657.33 1652 4560.17 1627.5 4472.5 1578.5C4384.83 1529.5 4315 1463.17 4263 1379.5C4211 1295.83 4185 1202 4185 1098C4185 1020.67 4199.67 948.667 4229 882C4258.33 815.333 4299.17 757 4351.5 707C4403.83 657 4464.33 618 4533 590C4601.67 562 4675 548 4753 548C4813.67 548 4872.83 556.833 4930.5 574.5C4988.17 592.167 5040 616.333 5086 647L4970 901C4942.67 875.667 4911.33 856 4876 842C4840.67 828 4802.33 821 4761 821C4675 821 4607.67 848.333 4559 903C4510.33 957.667 4486 1022.33 4486 1097C4486 1149.67 4497.83 1197.33 4521.5 1240C4545.17 1282.67 4577.5 1316.5 4618.5 1341.5C4659.5 1366.5 4706.33 1379 4759 1379C4803 1379 4845 1371.33 4885 1356C4925 1340.67 4954.67 1324 4974 1306L5087 1565C5049 1588.33 5002 1608.67 4946 1626C4890 1643.33 4829.33 1652 4764 1652Z" fill="#5F2710" stroke="#5F2710" stroke-width="90" stroke-miterlimit="10"/>
<path d="M5212 1640V100H5528V987H5556L5896 563H6269L5827 1079L6292 1640H5919L5553 1180H5528V1640H5212Z" fill="#5F2710" stroke="#5F2710" stroke-width="90" stroke-miterlimit="10"/>
</g>
</svg>
