<svg width="1434" height="1780" viewBox="0 0 1434 1780" fill="none" xmlns="http://www.w3.org/2000/svg">
<mask id="mask0_23_146" style="mask-type:luminance" maskUnits="userSpaceOnUse" x="0" y="100" width="1434" height="194">
<path d="M1434 100H0V294H1434V100Z" fill="white"/>
</mask>
<g mask="url(#mask0_23_146)">
<path d="M196 1656V116H512V1003H540L880 579H1253L811 1095L1276 1656H903L537 1196H512V1656H196Z" fill="#F0B9A6" stroke="#F0B9A6" stroke-width="90" stroke-miterlimit="10"/>
<path d="M180 1640V100H496V987H524L864 563H1237L795 1079L1260 1640H887L521 1180H496V1640H180Z" fill="#4E1E0B" stroke="#4E1E0B" stroke-width="120" stroke-miterlimit="10"/>
<path d="M180 1640V100H496V987H524L864 563H1237L795 1079L1260 1640H887L521 1180H496V1640H180Z" fill="#FBE7DD" stroke="#FBE7DD" stroke-width="90" stroke-miterlimit="10"/>
</g>
<mask id="mask1_23_146" style="mask-type:luminance" maskUnits="userSpaceOnUse" x="0" y="324" width="1434" height="195">
<path d="M1434 324.301H0V518.301H1434V324.301Z" fill="white"/>
</mask>
<g mask="url(#mask1_23_146)">
<path d="M204 1664V124H520V1011H548L888 587H1261L819 1103L1284 1664H911L545 1204H520V1664H204Z" fill="#E28F74" stroke="#E28F74" stroke-width="90" stroke-miterlimit="10"/>
<path d="M180 1640V100H496V987H524L864 563H1237L795 1079L1260 1640H887L521 1180H496V1640H180Z" fill="#4E1E0B" stroke="#4E1E0B" stroke-width="120" stroke-miterlimit="10"/>
<path d="M180 1640V100H496V987H524L864 563H1237L795 1079L1260 1640H887L521 1180H496V1640H180Z" fill="#F6D2C4" stroke="#F6D2C4" stroke-width="90" stroke-miterlimit="10"/>
</g>
<mask id="mask2_23_146" style="mask-type:luminance" maskUnits="userSpaceOnUse" x="0" y="548" width="1434" height="195">
<path d="M1434 548.699H0V742.699H1434V548.699Z" fill="white"/>
</mask>
<g mask="url(#mask2_23_146)">
<path d="M212 1672V132H528V1019H556L896 595H1269L827 1111L1292 1672H919L553 1212H528V1672H212Z" fill="#CC6645" stroke="#CC6645" stroke-width="90" stroke-miterlimit="10"/>
<path d="M180 1640V100H496V987H524L864 563H1237L795 1079L1260 1640H887L521 1180H496V1640H180Z" fill="#4E1E0B" stroke="#4E1E0B" stroke-width="120" stroke-miterlimit="10"/>
<path d="M180 1640V100H496V987H524L864 563H1237L795 1079L1260 1640H887L521 1180H496V1640H180Z" fill="#E9A48D" stroke="#E9A48D" stroke-width="90" stroke-miterlimit="10"/>
</g>
<mask id="mask3_23_146" style="mask-type:luminance" maskUnits="userSpaceOnUse" x="0" y="773" width="1434" height="194">
<path d="M1434 773H0V967H1434V773Z" fill="white"/>
</mask>
<g mask="url(#mask3_23_146)">
<path d="M220 1680V140H536V1027H564L904 603H1277L835 1119L1300 1680H927L561 1220H536V1680H220Z" fill="#A14A27" stroke="#A14A27" stroke-width="90" stroke-miterlimit="10"/>
<path d="M180 1640V100H496V987H524L864 563H1237L795 1079L1260 1640H887L521 1180H496V1640H180Z" fill="#4E1E0B" stroke="#4E1E0B" stroke-width="120" stroke-miterlimit="10"/>
<path d="M180 1640V100H496V987H524L864 563H1237L795 1079L1260 1640H887L521 1180H496V1640H180Z" fill="#D97757" stroke="#D97757" stroke-width="90" stroke-miterlimit="10"/>
</g>
<mask id="mask4_23_146" style="mask-type:luminance" maskUnits="userSpaceOnUse" x="0" y="997" width="1434" height="195">
<path d="M1434 997.301H0V1191.3H1434V997.301Z" fill="white"/>
</mask>
<g mask="url(#mask4_23_146)">
<path d="M212 1672V132H528V1019H556L896 595H1269L827 1111L1292 1672H919L553 1212H528V1672H212Z" fill="#7A3318" stroke="#7A3318" stroke-width="90" stroke-miterlimit="10"/>
<path d="M180 1640V100H496V987H524L864 563H1237L795 1079L1260 1640H887L521 1180H496V1640H180Z" fill="#4E1E0B" stroke="#4E1E0B" stroke-width="120" stroke-miterlimit="10"/>
<path d="M180 1640V100H496V987H524L864 563H1237L795 1079L1260 1640H887L521 1180H496V1640H180Z" fill="#B85632" stroke="#B85632" stroke-width="90" stroke-miterlimit="10"/>
</g>
<mask id="mask5_23_146" style="mask-type:luminance" maskUnits="userSpaceOnUse" x="0" y="1221" width="1434" height="195">
<path d="M1434 1221.7H0V1415.7H1434V1221.7Z" fill="white"/>
</mask>
<g mask="url(#mask5_23_146)">
<path d="M204 1664V124H520V1011H548L888 587H1261L819 1103L1284 1664H911L545 1204H520V1664H204Z" fill="#5F2710" stroke="#5F2710" stroke-width="90" stroke-miterlimit="10"/>
<path d="M180 1640V100H496V987H524L864 563H1237L795 1079L1260 1640H887L521 1180H496V1640H180Z" fill="#4E1E0B" stroke="#4E1E0B" stroke-width="120" stroke-miterlimit="10"/>
<path d="M180 1640V100H496V987H524L864 563H1237L795 1079L1260 1640H887L521 1180H496V1640H180Z" fill="#8A3C1D" stroke="#8A3C1D" stroke-width="90" stroke-miterlimit="10"/>
</g>
<mask id="mask6_23_146" style="mask-type:luminance" maskUnits="userSpaceOnUse" x="0" y="1446" width="1434" height="194">
<path d="M1434 1446H0V1640H1434V1446Z" fill="white"/>
</mask>
<g mask="url(#mask6_23_146)">
<path d="M196 1656V116H512V1003H540L880 579H1253L811 1095L1276 1656H903L537 1196H512V1656H196Z" fill="#3D1708" stroke="#3D1708" stroke-width="90" stroke-miterlimit="10"/>
<path d="M180 1640V100H496V987H524L864 563H1237L795 1079L1260 1640H887L521 1180H496V1640H180Z" fill="#2B0F06" stroke="#2B0F06" stroke-width="120" stroke-miterlimit="10"/>
<path d="M180 1640V100H496V987H524L864 563H1237L795 1079L1260 1640H887L521 1180H496V1640H180Z" fill="#5F2710" stroke="#5F2710" stroke-width="90" stroke-miterlimit="10"/>
</g>
</svg>
